<svg xmlns="http://www.w3.org/2000/svg" width="328" height="18.3in" viewBox="0 0 615 3294"><path fill="#263238" stroke="#000" d="M130.05 73.51L145 63.64c7.81-6.1 18.67-15.69 27-20.29l22-9.63 32-13.01 29-7.3 10-2.95 9-1.21c7.08-1.64 13.68-4.16 21-4.25 14.56-.17 12.35-1.02 25-2.75h9.42C341.47.46 340.83-.15 354 0l15 1 22.04 1.14L406 4.07h8l32 6.7c13.51 3.13 27.14 6.07 40 11.37l22 9.34c11.54 5.51 51.03 27.81 60.96 34.86 6.63 4.71 22.26 16.03 21.28 24.66l-2.03 17-10.51 25-12.93 41-5.34 28-.94 8-4.75 17-7.6 29c-6.07 17.14-12.4 28.37-21.14 44-2.65-.66-2.82.85-4 3l2-1v1l-12.09 18-5.9 8-9.01 10c.17 6.97-9.16 16.57-15.91 18.07l-11.92.82c-2.56.55-4.49 2.42-7.18 2.31-5.69.4-1.86-2.3-14.99 0l-2-3.2 1 2c-11.47-3.55-11.46-6.34-16.3-9.59-3.61-2.43-4.27-1.07-6.7-5.41-3.66.39-8.46-.12-11-3l-3.99.84-15.47-1.38L390 339l-36 2-12-1 3-1c-7.92 1.96-4.15 2.74-16 3.52-5.15.35-5.66-2.18-10 1.48l-7-1 3 1-6-2 1 3-16 1c-3.15 3.57-14.67 3.05-20 4l-3-1h2v1l-9.42 1.11-9.58 2.65h-10l4 1.24-21 4.2-18 2.8h2v1l-18 3c-.99-1.98-3.23.9-10 1-8.16.11-12.45.51-19-5l1 3-8-3c-2.7 3.47-5.02 2.65-9 3.18-8.66 1.14-10.16 3.21-20 .82l1 4-4-1v-1l2-2-4 2c-9.1-8.51-14.26-13-22.12-23.17C81.81 320.14 68.97 287.47 59.1 258l-2-8-3.51-10-8.72-41-6.79-20-4.3-15-1.29-7-2.2-8-1.61-11-3.84-25c-.98-8.99-5.76-31.77-8.79-40-2.03-5.52-3.94-8.69-4.92-14.96v-6.21c-.78-3.09-2.3-5.49-1.21-8.76.89-2.68 3.1-3.83 5.25-5.37 8.94-6.4 16.92-3.11 26.83-1.32l13 2.11c6.81 1.91 26.46 12.38 31.63 17.05l13.41 19.48c1.36 2.85 2.08 5.96 2.96 8.98-2.77 1.22-2.45 5.25-2.57 8-.49 11.39 2.02 9.25 2.22 15 .19 5.75-2.74 8.01-.65 14l1-5c0 19.21 2.12 23.33 5.63 41l1.05 7 2.64 9 2.59 13 6.66 21 3.85 16 11.27 34 8.63 21c4.63 12.24 10.05 24.41 18.19 34.71l6.22 6.72c2.94 3.54 2.29 7.95 7.29 9.82 2.92 1.09 6.99-.05 9.98-.65l20-4.32c13.79-2.85 55.51-10.24 68-10.28-7.13-12.17-12.6-10.48-21-18l3-1c-3.45-.19-7.91.76-9-3-5.01 2.07-11.78.43-15-4-3.38 1.68-3.83.82-6-2l-2 2c-3.23-5.51-4.76-3.21-9.58-4.84L209 280v2l-4-2c1.5-2.88-3.13-2.97-5-3l-5-4-3 2v-3l-3 1-7-8 1 3-5-2-3-7-3 1-4-10-2 2c-2.56-3.77-3.59-4.29-3-9l-3-3 2 1c-4.04-3.27-7.13-2.75-5-9l-3-1 1 2h-1l1-4h-4l-1-6-1 3c-.92-2.84-2.23-6.01-1.22-9 1.23-3.65 5.15-6.27 8.22-8.31 8.73-5.77 8.16-6.21 18-10.91 17.28-8.25 46.91-20.61 65-26.06l22-6.14c2.53-.57 8.7-1.62 10.4-3.31 1.94-1.92 2.34-11.26 2.51-14.27.28-4.79-.46-6.02-.79-10v-18L272 105c-4.57-1.09-5.73-6.79-6-11l-1 1-2-1 1-3-2 1 2-3c-6.02-2.35-1.89-6.37-6-8v-4l-2 2c.02-1.46.3-3.27-1.03-4.43-1.53-1.07-5.15-.33-6.97 0-5.61.56-11.26.82-15 5.43h-15l1 2c-16.41.15-15.15 2.83-26 5l-3-4 1 3-15 3c-1.07 3.6-3.45 3.05-7 3.9-9.08 1.79-8.76 2.77-18 0l-2 2.1-1-3-5 2 1-4c-4.34.67-5.16-.11-9-2-2.09 2.23-2.67 1.68-5 0l4-2c-4.52-1.01-5-1.57-6-6l-7 1 9.05-7.49zM370 53l3 2c-3.32-.95-6.3-2.74-9 0l-13-2c-4.66 2.75-12.84 3.67-18 2-2.87 2.59-14.54 2.72-18 1-4.68 4.02-5.62 2.31-10.71 3.48l-4.9 1.56c-4.65.83-6.32-.08-6.39 5.96-6.06 2.76 7.62 9.36 10 10.62 9.31 4.93 27.27 17.94 30.19 28.38.93 3.34-.79 6.43-.72 10v5c.66 6.55-3.83 19.81-1.47 33 18.36 0 40.85.81 58 7.76 6.43 2.6 11.23 6.23 17 9.78 5.77 3.56 10.24 5.62 14.43 11.46 4 5.58 5.38 18.81 2.57 25l-1-5-5 13-2-3-1 6c-2.01-4.19-5.64-.03-8 2l2-4-8 6c2.82-5.09 2.93-5.21 3-11l-9 6c6.55-8.07 15.11-17.92 12-29l3 1-8-4 1-2-6-3-1 2h-1c-1.27-3.92-6.61-3.42-10-3-.96-2.88-3.82-.81-6 0l1-3-4 2c-2.32-2.32-4.79-.91-8-1l3-1c-3.56-.87-17.43-1.64-21-1.27-2.86.29-6.11.34-7 3.27-2.26.02-9.81-.18-11.43 1.05-2.4 1.82-2.53 8.14-2.57 10.95l-.92 13 .74 8-.5 8 .68 17 1 15 2 40 1 15 15-.92 10 .74 40-.82c9.68.02 27.19 6.09 34.96 1.98 3.56-1.88 8.43-9.47 10.85-12.98l20.46-33c13.14-23.65 20.21-49.78 26.23-76l4.97-24 9.55-37L514 90l-7-7-2 2c-1.84-3.4-2.11-3.77-6-4-2.73-3.78-11.37-7.51-16-8v-3l-16-4.76-23-6.32-17-3.98h-18.09L400 56l3-1c-6.1-1.79-26.88-2.87-33-2zm-20 3l-1 1v-1h1zM86 59l1 1v-1h-1zm221 2l-1 1v-1h1zm148 2l-1 1v-1h1zM14 65l1 1v-1h-1zm241 10l-1 1v-1h1zM98 77l1 1v-1h-1zm126 3l-1 1v-1h1zm364 11l1 1v-1h-1zM23 94l1 1v-1h-1zm76 0l1 1v-1h-1zm-75 5l1 1v-1h-1zm562 2l1 1v-1h-1zm-316 2l1 1v-1h-1zm313 12l1 1v-1h-1zm-252 7l1 1v-1h-1zM29 132l1 1v-1h-1zm300 4l1 1v-1h-1zm-1 5l1 1v-1h-1zm244 2l1 1v-1h-1zm-1 3l1 1v-1h-1zm-1 3l1 1v-1h-1zm-538 2l1 1v-1h-1zm4 14l1 1v-1h-1zm527 7l1 1v-1h-1zm-525 1l1 1v-1h-1zm298 5l6-3-6 3zm226-3l1 1v-1h-1zm-228 3l1 1v-1h-1zm21-1l-1 1v-1h1zm-315 2l1 1v-1h-1zm450 10l1 1v-1h-1zm-223 5l-3-1h-6l-3 1-4 1c-2.39 3.59-10.58 4.74-15 7l3 2-14 2 3 3-5-2-7 2.55-15 7.45 1 2.99c-1.83-.26-3.07-.62-4.95 0-4.43 1.44-12.43 12.84-3.84 23.01 13.25 15.7 32.86 24.11 51.79 30.66 5.54 1.91 18.42 5.74 23.96 5.29 7.22-.59 4.05-6.49 4.04-15.95v-26l.82-12-.73-10 .91-12c.02-11.35.51-10.71-7-12v3zm-18 2l1 1v-1h-1zm-7 1l1 1v-1h-1zm-20 13l-1 1v-1h1zm198 1l-1 1v-1h1zm-204 1l-1 1v-1h1zm-7 3l-1 1v-1h1zm-14 8l-1 1v-1h1zm-144 2l1 1v-1h-1zm139 0l1 1v-1h-1zm360 4l1 1v-1h-1zm0 2l1 1v-1h-1zm-391 3l1 1v-1h-1zM57 246l1 1v-1h-1zm109 3l1 1v-1h-1zm9 13l-1 1v-1h1zm-112 2l1 1v-1h-1zm122 5l-1 1v-1h1zm350 11l2-7c-2.01 2.65-2.83 3.66-2 7zm-334-2l-1 1v-1h1zm2 0l-1 1v-1h1zm14 4l1 1v-1h-1zm-5 0l-1 1v-1h1zm12 5l-4-2 4 2zm12 3l7 2c-2.61-2.57-3.41-3.25-7-2zm22 7l1 1v-1h-1zm266 0l1 1v-1h-1zm-257 5l1 1v-1h-1zm252 1l1 1v-1h-1zm-2 3l1 1v-1h-1zm-10 16l1 1v-1h-1zm-418 2l1 1v-1h-1zm411 7l1 1v-1h-1zm-126 6l1 1v-1h-1zm-7 1l1 1v-1h-1zm4 0l1 1v-1h-1zm-41 3l6-2-6 2zm7-2l1 1v-1h-1zm15 0l1 1v-1h-1zm13 0l1 1v-1h-1zm30 0l1 1v-1h-1zm12 0l1 1v-1h-1zm-82 1l1 1v-1h-1zm83 0l1 1v-1h-1zm7 1l1 1v-1h-1zm-117 4l5-1-5 1zm-12 1l1 1v-1h-1zm205 0l1 1v-1h-1zm-240 7l4-2-4 2zm178-3l-1 1v-1h1zm5 1l1 1v-1h-1zm-324 2l1 1v-1h-1zm1 1l1 1v-1h-1zm129 1l1 1v-1h-1zm-127 1l1 1v-1h-1zm328 0l1 1v-1h-1zm2 0l1 1v-1h-1zm26 0l1 1v-1h-1zm-245 1l1 1v-1h-1zm233 1l1 1v-1h-1zm6 0l1 1v-1h-1zm-247 1l1 1v-1h-1zm-55 3l1 1v-1h-1zm-41 1l1 1v-1h-1zm76 0l1 1v-1h-1zm4 0l1 1v-1h-1zm-79 1l1 1v-1h-1zm68 0l1 1v-1h-1zm10 0l1 1v-1h-1zm-76 1l1 1v-1h-1zm17 0l1 1v-1h-1zm34 0l1 1v-1h-1zm11 0l1 1v-1h-1zm67 75.76c9.33 2.2 12.99 1.64 23 6.04 4.54 1.99 6.36 4.55 10.09 7.11l14.33 8.04c5.98 3.37 13.16 6.12 18.57 10.29 12.25 9.46 18.63 24.65 10.01 38.76l36-2.09 27-1.91c11.83-.13 37.31 3.01 49 5.51l14 3.83 32 7.15 14 4.84c12.72 4.24 25.33 8.98 37 15.67 4.58 2.63 10.53 6.11 12.98 11 1.38 2.75 1.07 8.79 1.02 12-.15 7.95-2.63 7.62-9 11.02a68.01 68.01 0 0 1-28 7.89h-7.27l-7.73 1.55-7 .81-21 4.52c-5.34.24-5.08-2-15-1.78L439 593l-14-.59h-10.04L391 595c-4 .57-8.09 2.3-12 1 6.51-1.52 9.2-2.35 13-8l-19-1 9-4c-1.46-4.08 4.89-5.67 8-7l23-8.54 8-3.46-1-2c4.47-1.94 6.63-2.52 9-7l-25-4.54-29-2.46-33 1.17-19 2.67-13.42 1.15c-22.89 2.72-48.5 8.64-70.58 15.29-14.6 4.4-22.94 7-37 13.61l-7 3.71c-7.68 3.59-10.65.46-14 6.4 10.07-1.58 13.79 1.69 23 4.12 4.69 1.23 10.96 2.05 14.96 4.49 4.1 2.49 15.72 12.66 19.04 13.59h8c7.92-.31 12.05-2.82 19-5.11l24-5.93c2.26-.21 4.71-.16 7 0 20.87-.19 20.08-2.08 42 2.66l9 2.5c8.91 2.04 14 2.34 21.98 8.31 5.6 4.18 7.49 12.6 2.59 18.11-4.18 4.7-20.02 8.08-26.57 10.26v2c4.68 1.62 8.29 1.98 10 7l-10 5.56c-9.36 4.29-10.34 3.3-19 5.88-9.24 2.75-18.26 6.11-28 6.56 7.37 6.33 16.27 10.62 11.36 22-3.18 7.38-7.62 6.96-12.36 9.44l-7 4.76-6 3.07-11 7.32-21 8.37-10 5.21-15 5.01-11 5.82 3-6-8 5.53c-5.85 3.61-8.4 3.63-13 9.47l23-7.13 8-1.39 7-1.98 21-3.81c23.78-3.54 31.81-2.69 55-2.52h34.04l33.96 4.41 10 .59c8.72.83 17.52 2.28 26 4.46l33 9.77 15 8.15c8.24 4.5 16.91 9.48 15.75 20.45-.25 2.35-1.39 4.84-2.34 7-4.18 9.46-6.12 8.02-13.41 13.35L431 824l-17 10.56c-9.19 5.1-19.36 5.08-22.4 8.16-1.35 1.38-1.3 2.55-1.6 4.28-10.49 4.64-8.96 8.49-16 9.74-4.81.86-10.25-1.73-18-1.74l-56-4.79-11 .79c-11.9.14-14.88-.23-27 2.65l-13 4.23-31 2.11-30-5.49c-5.84.34-10.34 3.9-15 5.5l-6 1.04c-2.6.69-4 2-7 1.49-6.15-1.05-18.36-14.72-22.96-19.53-4.68-4.89-17.77-19.09-20.91-24.28-2.34-3.88-.91-7.39-7.44-18.63-5.2-8.97-15.14-29.23-16.69-39.09l23-2.47 11 2.29c3.69.44 4.66-.11 9 .93l20 5.83c4.86.69 10.6-3.28 15-5.27 8.3-3.74 16.83-7.91 26.16-8.31-.19-1.52-.41-2.46 0-4 1.74-4.31 13.22-15.38 16.84-19l11.38-11.17c3.91-4.32 4.28-6.13 7.09-9.83l8.27-10c5.3-6.89 9.77-10.92 11.26-20-10.04 1.81-7.91 4.05-21 5.26-2.09.08-3.88.5-6 0-6.24-1.1-12.19-7.44-15.87-12.26-7.38-9.68-21.12-27.83-24.69-39l-8.23-23-1.72-9c-.76-3.56-1.54-9.67-5.6-10.67-6.19-1.52-14.78 7.56-18.72 11.69l-11.46 12.56-13.1 12.6c-4.75 5.08-8.63 10.83-15.61 12.82l1 3-9 6c-3.03 5.92-10.74 7.6-17 7-3.55 5.38-10.01 3.81-15.41 3.98-2.99-.05-5.42 1.19-8.55 0-2.65-.84-9.55-7.68-11.2-10.06l-2.66-4.55-3.8-4.58-2.52-5.79c-1.17-2.83-4.54-9.24-3.62-12 .81-2.42 4.86-6.04 6.71-8l5.48-6.14c4.2-3.99 7.1-6.1 10.91-10.86l21.95-25.99 7.96-8.1c7.96-9.74 9.58-13.91 14.59-24.91l4.82-10 2-5.83c1.82-4.23 3.37-4.01 5.34-10.17h5l-1-5 14.72 3.64 6.29 1.33 12.99 5.78 16.91 7.59 15.18 13.11H190l14-4.98 41-9.23 10-1.52 27-4.72c-4.38-4.92-3.47-4.84-6.32-8.54-6.47-8.38-16.75-16.61-27.68-17.25-2.32-.14-10.74.59-13 1.17-4.29 1.1-8.58 3.42-13 2.62v-2c8.4-3.96 9.67-3.35 17-9.85 2.18-1.93 5.25-3.97 5.35-7.16.19-6.06-6.19-7.02-5.35-14.99-5.84-1.46-4.76-8.67-3-13l-3 1c.66-8.51 4.07-8.27 9-14l10 2.76zm1 51.24l1 1v-1h-1zm3 2l1 1v-1h-1zm108 51l1 1v-1h-1zm-13 1l1 1v-1h-1zm-17 2l1 1v-1h-1zm-9 1l1 1v-1h-1zm95 2l1 1v-1h-1zm-131 1l1 1v-1h-1zm5 1l1 1v-1h-1zm2 0l1 1v-1h-1zm-5 1l1 1v-1h-1zm-7 1l1 1v-1h-1zm-56 14l1 1v-1h-1zm-9 3l1 1v-1h-1zm326 2l1 1v-1h-1zm-341 5l1 1v-1h-1zm331 0l1 1v-1h-1zm-7 2l1 1v-1h-1zm-156 7l-1 1v-1h1zm68 1l1 1v-1h-1zm-265 1c1.59 2.26 1.58 2.39 4 1l-4-1zm236 0l1 1v-1h-1zm62 0l1 1v-1h-1zm-71 1l1 1v-1h-1zm-11 1l1 1v-1h-1zm-238 4l1 1v-1h-1zM37 626l1 1v-1h-1zm228 10.78c-3.33 1.79-9.09 5.42-10.16 9.25-2.54 9.18 12.23 4.61 16.16 3.96 11.13-1.87 24.81-10.79 28-21.99-11.01.51-24.27 3.57-34 8.78zm99 .22l1 1v-1h-1zm-109 5l1 1v-1h-1zm-157 9l1 1v-1h-1zm-1 1l1 1v-1h-1zm-28 6l1 1v-1h-1zm12 0l1 1v-1h-1zm-18 1l1 1v-1h-1zm145 10l1 1v-1h-1zm99 23l1 1v-1h-1zm-62 36l1 1v-1h-1zm64 31l-17-1c-13.14-.02-29.07 1.17-42 3.46-16.21 2.88-30.79 9.15-46 15.08l-10 2.83c-6.03 1.81-16.82 5.49-22 8.63l13.45 28 9.55 14c23.02 3.03 38.8-1.36 61-4.28 6.75-.89 9.94-1.71 17-1.89h39c11.15-.12 13.25-3.22 22-8.12 10.14-5.68 14.25-7.54 24-14.84l22.04-16.89c5.41-4.42 10.05-7.97 11.96-14.98-27.24-5.48-55.19-9.96-83-10zm92 202.8c3.85.68 18.44 10.7 23 13.39 11.88 7 12.67 9.93 22 19.21 2.9 2.88 7.99 6.98 9.42 10.6 1.17 2.98 2.87 14.75 2.24 18-1.35 6.99-3.93 3.98-3.65 16l2.99 35 1 19v25c29.35-3.87 62.37-1.1 90 10l13 5.82 7.99 6.03c6.4 4.86 22.95 18.72 24.58 26.15.91 4.17-1.72 9.43-3.74 13l-22.5 27-12.71 18-10.09 10.01c-6.14 7.74-8.34 16.01-17.62 24.86-7.16 6.83-10.43 6.8-17.91 10.51-6.23 3.08-14.8 7.7-22 7.15l-21-.53-1.96 20v17l2.96 35v22c-.02 13.31-4.51 21.5-10.05 33l-3.7 9-3.93 7-4.27 9-6.27 10c-2.06 3.84-6.15 11.7-9.16 14.53-2.41 2.27-5.52 3.51-8.62 4.47v-2l-8 6.51-9 5.49c-6.72-1.26-7.11 4.11-14 6l-1-3c6.09-5.17 10.72-15.05 11.72-23v-8l1.66-7c1.01-5.4.83-9.68.67-15.04l6.91-56.96-.87-8-2.18-35-.91-12v-27l-19 1.94-16 7.06 1 5c-6.35-1.21-4.5-1.28-11-.8-8.19.59-19.74-9.33-24.79-15.2-5.37-6.23-14.8-20.5-18.32-28l-4.55-11c-3.85-8.58-7.64-16.95-10.34-26l-22 19.83-19 16.34-21.96 20.39-21.81 21.17V1300l1.6 22 1.34 20 7.25 37 8.39 29 6.97 16-2.78 10c-7.96 1.34-5.33 3.23-10.13 5.49-3.77 1.79-14.4 2.45-18.87 2.51l-1 5-5 1c-3.14-2.59-6.89-4.8-9.37-8.04-8.7-11.35-14.04-33.85-17.28-47.96l-4.46-17-1.35-9-4.54-29c-7.49 2.2-19.35 15.54-26.04 21.04L122 1373.09l-13 7.6c-6.7 4.27-26.76 18.02-33 19.66-9.3 3.26-13.49.37-17 0-4.06-.34-3.66 1.04-9 0l2-4.35c-9.72-4.05-5.46-6.92-10-19l5.96-1.71c4.22-1.71 10.48-7.04 12.04-11.29 6.51-.75 9.75-4.03 15-7.65 10.61-7.31 19.74-16.27 29.25-24.91 13.23-12.03 26.73-25.61 36.85-40.44l8.62-15c4.66-8.13 10.07-16.02 13.08-25 2.31-6.87 2.72-28.64 3.29-37l1.74-13 2-22c.57-4.88 1.12-5.41 1.17-11-6.64 6.31-9.46 7.31-16 12.33-9.96 7.67-18.41 14.67-31 17.91-7.48 1.93-15.34 1.85-23 1.76-5.43-.07-11.13-.79-16-3.33-11.62-6.05-18.81-16.92-25.7-27.67-6.53-10.18-8.08-16.88-11.3-28l5-1-1-4 7 1c2.73 3.22 4.35 4.27 8 6.35 3.76 2.13 9.66 4.86 14 5.16 15.1 1.03 38-15.49 50-23.96l11.99-8.47 16.01-11.66 22-14.81c2.74-1.7 7.51-4.19 8.18-7.63.65-3.38-3.44-7.35-5.52-9.7L166.34 1051l-7.01-9.83c-2.75-3.14-5.41-4.54-7.62-8.26-2.8-4.7-3.05-9.23-4.6-12.74-1.94-4.39-4.88-8.37-5.86-13.17-.4-1.95-1.2-8.19-.92-10 .68-4.26 2.17-3.69 1.67-9 15.69 4.3 15.85 1.21 22 2.26l7 2.23 6.91 1.76c2.85 1.06 6.33 3.85 9.09 5.55l11 6.66 26 24.26c8.28 7.4 24.18 24.63 23 36.28 14.06 2.87 19.99 9.96 21.2 24 .04 1.94.7 5.06 0 6.83-.67 2.36-6.21 7.22-8.2 9.17-8.61 8.46-17.46 12.2-22.82 24-4.74 10.45-5.73 20.02-7.79 31l-3.2 19c.1 4.22 3.03 9.5 2.59 15l-3.33 12-3.45 23c6.13-3.23 9.75-7.08 15-11.39l25.58-21.61 11.42-10c5.48-4.17 16.59-11.45 15.78-19-.89-8.29-5.13-17.22-4.69-25l.82-7c.43-5.75-.1-9.23 7.09-7l-1-6 25 6.92 12.23 6.71L340 1129l1.47 6.17v4.83c-.06 4.06 1.82 12.78 5.72 14.78 4.54 2.34 14.95-5.64 19.81-7.78l25-11.42c3.45-1.46 9.11-3.35 10.98-6.69 1.62-2.89 1.06-14.99 1.02-18.89l-.95-9.99V1075l-2.05-32-1-16v-11c-.01-7.18-2.39-17.52-3.56-25l-.53-8-2.91-13 5 1-4-9.2c2.4-.21 4.56-.75 7 0zm57.18 205.2l.82 9c.03 2.47-.46 9.61 1.02 11.47 1.66 1.84 5.83.57 7.98 0 13.97-2.93 9.97-1.65 23-.64 2.44.19 4.61.16 6.62-1.43 1.6-1.26 3.56-4.6 4.7-6.4 3.22-5.06 10.71-13.92 9.35-20-1.51-6.75-12.65-11.03-18.67-12.53-4.31-1.07-12.69-2.62-17-2.38l-16 .91-1.82 22zM356 1169c1.38 4.86 2.76 6.62 4.55 11l5.03 15c.83 2.45 2.1 8.6 3.98 9.98 2.65 1.93 7.64.22 10.44-.64l24-5.34-1-42c-11.84-1.21-35.39 7.95-47 12zm107.6 43.02c-2.16 1.74-1.6 7.37-1.6 9.98.01 3.96 1.07 19.71 2 23 5.11-3.17 5.88-7.05 8.99-11.91 2.58-4.03 4.98-5.54 7.95-11.09l5.06-13c-3.4.16-20.49 1.47-22.4 3.02zM376 1221c1.23 6.58 6.64 17.79 9.75 24 1.36 2.71 3.69 7.65 5.78 9.69 3.43 3.34 14.12 3.84 14.45-4.71L404 1219l-28 2zm45 233l1 1v-1h-1zM84.27 1767.68c-4.42-4.55-4.43-10.19-6.17-15.68l-2.49-7c-.32-2.08 0-3.1 0-5-.21-2.7-1.3-5.29-.71-8 .86-3.89 7.19-11.17 9.75-15l16.04-28 15-30 5.49-13 6.04-10 11.71-26 2.94-11 5.7-18c2.15-7.14 3.29-7.56 4.85-16 1.5-8.11 1.2-13.83.78-22l-.66-6c.24-3.45 2.1-4.47 2.89-10 1.03-7.22-.3-15.26 9.57-13.68 7.05 1.14 22.98 8.7 29 12.89 11.8 8.21 6.42 5.19 15 12.47 2.28 1.93 4.57 3.26 6.63 5.5 3.13 3.43 5.09 7.58 6.81 11.82 1.45 3.55 4.06 10.32 4.43 14 .36 3.6-.57 7.48-1.27 11l-2.28 11-11.97 25-4.66 14-8.99 20c-.48 4.39 7.03 11.94 9.55 16 5.46 8.78 9.62 20.59 9.75 31 .11 9.33-.37 18.9-2.6 28l-6.75 22c-4.39 18.56-12.54 51.98-19.08 69l-6.94 17-6.15 12-8.97 22-8.8 15-2.77 8-3.94 9c-10.57-3.33-8.77.59-17 1.79-4.65.68-7.3-.68-11-.78-4.71-.12-6.57 1.12-10.91-2.43-4.37-3.56-5.27-7.66-7.15-12.58-2.85-7.4-6.39-14.75-5.01-23 .58-3.45 5.75-9.28 7.92-13 5-8.59 9.06-17.85 12.93-27l13.94-41 5.37-17 4.91-18-20 24c-8.37-3.3-10.12 1.77-17 5l-1-3-8 4c-3.2-8.61-6.75-1.11-14.73-9.32zm199.69-143.8c3.92 2.32 5.55 4.85 10.04 6.56 4.58 1.74 10.13 1.64 15 1.82 21.4.78 41.41-7.52 61-15.04l15-5.37 25-9.06 12.17-4.16c1.55.02 4.24 1.12 5.83 1.61 9.67 2.96 22.26 9.42 23.57 20.76l-2.57 15c-7.81 3.61-14.79 10.74-16.32 11.6l-14.68 5.71-35 16.17-10 5.21-32 11.21-28 18.1c-22.02 13.39-36.95 21.84-56 39.96-3.52 3.35-6.86 5.32-10 9.04 6.22-.56 18.3-4.59 25-6.45l18-4.05 22-6.47 32-7.91 38-12.18 52-23.93c3.53-1.42 18.69-4.53 22-3.87 2.51.5 10.7 5.49 13.09 7.2 3.25 2.34 10.06 6.94 8.68 11.66-1.74 5.94-9.46 11.63-14.77 14.24l-17 6.57-25 10.97-18 10.41c-21.86 13.55-30.28 20.18-50 36.35-13.61 11.16-29.67 24.06-37 40.46l21-2.72 49-7.73 25-4.55-17.56-22.17-4.6-8.91L381 1771c7.28.41 13.77 4.45 20 8l-9-11c10.59-.91 30.58 10 40 15.28l40 23.29 22 17.99c11.42 9.46 11.42 7.71 21.92 20.44 9.35 11.34 21.54 26.26 18.06 42-.68 3.09-1.68 6.32-3.78 8.77-4 4.69-8.38 2.64-13.47 3.15-6.58.65-12.56 3.32-19.73 1.67-8.31-1.92-21.86-9.11-23.72-9.51-2.55-.55-7.41.45-10.28.68l-25 3.24c3.97-8.39 19.54-19.24 21.77-27 1.29-4.47-3.95-9.03-6.7-11.99L425 1828c-1.38 2.02-5.79 8.8-7.3 10.04l-15.7 8.58-6 4.3-25 9.42c-18.46 6.41-48.62 14.44-68 14.66-10.24.11-15.5-.37-25-4.7-1.73-.78-4.12-1.7-5.49-3-2.92-2.74-5.58-11.35-6.66-15.3-.79-2.89-2.25-7.14-2.38-10-.31-6.42 4.31-24.54 7.6-29.96l10.1-12.04c11.5-12.85 25.5-23.17 38.83-34-7.33 1.13-14.97 4.49-22 6.92l-35 10.79c-9.73 2.69-25.39 6.09-32.3-3.75-2.42-3.45-2.69-7.96-3.7-11.96 5.72-6.14.41-7.76 4.47-12.14l26.53-17.24 9-7.12 22-15.93c10.51-7.35 34.1-23.54 42-32.57-11.88.96-25.49 2.69-37-1.39-6.74-2.38-15.72-8.34-20.32-13.78-2.64-3.12-3.35-5.36-5.16-8.83-6.29-12-11.4-26.64-6.52-40 3.52.75 4.01 1.11 7-1 3.5.99 11.95 4.1 14.96 5.88zM442 1645l-5-1 5 1zm-196 108l1 1v-1h-1zm74 12l1 1v-1h-1zm-118 202.47c4.66-.22 14.27 2.28 19 3.52l11 2.29c5.2 2.04 9.32 5.88 14 8.77 2.32 1.43 5.61 2.66 7.47 4.44 3.14 3.03 3 5.77 4.15 9.51 2.22 7.27 4.82 12.99 2.66 21-4.75 17.67-18.16 24.01-33.28 31.81l-11 6.19c13.27 17.53 29.9 21.77 49 30l-1 3c3.66 1.94 8.54 7.5 7.4 12.04l-4.5 9.24c-.54 2.33.6 5.34 1.1 7.72l-12 6.97-26 13.73c-5.05 2.68-14.17 6.62-17.26 11.34-2.04 3.11-1.6 6.46-2.21 9.96-1.33 12.62-.98 12.65 0 25l-1.53 24 1 30c6.83-1.67 24.65-13.65 32-17.85l50-28.3 25-13.9 9-4.95c-5.13 9.1-4.38 12.36-6.56 16l-5.08 7-5.77 9.83L291 2223l-15.04 14.62-14.96 9.92-24 16.44c-6.03 4.15-15.42 10.04-19.11 16.31-3.54 5.25-.62 17.51 0 23.71l5.4 39c.88 6.43 3.05 12.39 2.67 19-.4 6.96-3.47 6.13-7.92 10.14-2.51 2.26-4.55 5.77-8.08 6.4H204c-7.73.89-9.72 5.43-17.61-3.12-2.31-2.5-3.16-4.66-4.98-7.42-13.86-20.99-10.21-35.96-14.41-59-8.55 3.81-13.42 8.27-21 12.67l-25 14.44-10.04 5.86c-8.27 5.71-19.16 16.77-29.96 15.34l-5-1.18c-3.24-.06-6.12 1.38-8.51 0-4.29-2.94-7.36-16.11-8.32-21.13-.52-2.31-1.18-5.48 0-7.62l13.84-11.75c4.9-4.09 11.28-11.77 15.79-16.8 22.99-25.62 38.94-50.53 54.98-80.83 6.27-11.85 15.1-28.5 15.22-42l-43 25.35-32 15.67c-10.12 4.77-23.68 11.84-35 11.98-11.45.13-24.69-2.84-32.37-12.04-2.44-2.92-9.72-15.02-8.59-18.67.71-2.31 3.02-2.13 4.96-2.29l-1-7 8 1.71 12-4.35 26-14.09 37-20.5 38-22.78 22-11.99 8.4-5.39L167 2093l-14 9.39-8 3.79-11 6.98-15 6.23c-5.68 2.2-12.95.79-22 3.84-9.97 3.36-20.07 12.37-30 10.77l26.57-35 36.92-45 18.59-24 6.56-10 18.24-22.99 6.55-8.06L183 1974c7.12-3.01 9.96-6.12 19-6.53zm166 193.45c2.56 1.54 7.41 4.69 9.58 6.61 2.53 2.23 4.63 5.53 8.42 4.97 2.06-.3 9.63-4.54 12-5.74 5.9-2.99 15.75-7.14 22-9.24 29.05-9.78 33.19-11.87 64-15.8 6.59-.85 16.43-2.63 23-2.21 20.83 1.33 40.17 7.64 58 18.49 8.61 5.24 17.98 12.65 26 18.88 3.83 2.98 9.32 7.15 10.47 12.12.68 2.98-.54 6.11-1.24 9-2.26 9.33-6.48 16.26-14.32 22.1l-6.9 4.51-9.05 8.67-7.96 5.32-8 7.14-13.87 10.58c-3.6 3.41-7.1 10.47-12.3 13.75-4.29 2.71-13.07 4.03-17.83 5.84-5.57 2.12-14.16 7.11-20 6.88-7.15-.29-20.82-2.74-28-4.3l-14-3.43-15-1.23-10-1.44c-4.89-.07-6.25 2.8-10 3.1-3.37.27-5.89-2.33-12-.96-4.56 1.02-7.24 3.9-12 1.66-7.96-3.74-19.22-20.5-24.14-28.19-9.83-15.38-17-28.89-23.44-46l-3.22-10-8.98-24-2.22-10c3.91-1.8 4.66-1.79 6-6 13.24.01 23.54 2.05 35 8.92zm43.06 45.08l18.36 29c1.7 2.34 4.38 5.57 5.62 8 1.06 2.09 1.12 4.46 3.27 5.23 1.91.69 13.94-1.24 16.69-1.65 4.9-.73 13.94-1.39 18-3.42 5.28-2.64 24.02-21.94 28.03-27.33 2.67-3.6 2.64-5.64 6.18-9.83l14.75-15c1.83-1.95 4.82-4.95 4.22-7.91-.56-2.76-4.91-5.28-7.18-6.64-8-4.78-14.76-6.44-24-6.45h-15c-10.9.13-31.9 6.52-43 9.58-12.38 3.4-23.46 6.43-35 12.42 2.49 5.87 5.76 8.87 9.06 14zM218 2461.69l6-1.08c3.56-.11 6.63 1.31 10 2.03 12.29 2.63 21.63 5.21 29.08 16.36 3.48 5.2 3.72 9.49 5.83 15l3.35 8c1.49 4.48 4.1 19.04 4.8 24v9c1.38 9.36 2.54 8.7 2.72 19.58l2.13 23.42 2.39 31 5.16 24 5.46 14c6.86 19.98 16.79 41.67 30.4 58 3.24 3.88 16.8 17.43 20.68 20.21l12.72 7.7 7.28 5.39c8.3 5.37 28.56 15.18 38 18.61l13 4.17c36.17 12.56 53.38 14.43 91 17.01l24 1.87 22-1.87c2.57-.51 5.46-.91 6.97-3.37 1.94-3.15-.21-8.52-1.31-11.72l-11.24-29c-3.4-10.43-12.27-25.93-17.63-36-9.18-17.27-11.66-25.49-24.61-42l-15.27-17.96L481 2629l12 5v-4c3.5.74 9.21 2.11 11.96 4.31 3.69 2.96 4.66 6.5 9.08 10.1l20.34 15.65 13.26 16.94 5.89 10c4.79 7.68 9.99 14.81 16.16 21.42 2.93 3.13 7.84 9.9 10.1 13.59 2.68 4.38 2.96 7.69 8.21 8.99 9.58 22.23 7.52 10.79 16.74 40 1.96 6.19 3.99 13.83-2.74 18 1.41 5.87 1.03 11.35-5.04 14.41l-5.96 2.17c-5.86 2.64-8.12 4.61-15 6.65-5.07 1.51-9.75 1.36-14 4.77l-34 3.99-25.42-1.22h-13.16l-9-.93-22.7-.94H449c-6.49-3.6-16.55-3.93-24-5.79-8.66-2.17-20.97-7.59-29-7.11-1.11-2.92-4.18-3.5-7-4.45l-17-5.81c-12.17-4.02-27.84-11.71-38-19.41-4.18-3.17-8.38-5.64-11-10.33-5.38-1.01-11.94-7.76-16.21-11.5-12.04-10.55-30.5-33.76-39.15-47.51-6.33-10.06-16.47-27.29-21.01-37.99-7.29-17.17-14.22-49.18-17.19-68l-2.5-17v-9l-4.23-32-2.42-12-3.09-24c-2.31-7.36-8.65-9.66-13.13-21-2.84-7.19 1.59-4.9-5.07-16 8.1-5.27 9.76-5.62 19-7.31zm367 110.51c12.15 7.38 16.27 10.83 24.08 22.8 1.42 2.18 3.31 4.62 4.1 7 3.09 7.16-1.91 5.62 0 16l-6.69 6.2-6.49 4.8h-2l-4.08-2.93-6.2 1.44H583l-5 .9h-9.99l-11.01-4.44-15 1.03c-2.68 2.6-4.56.03-4.33-3.02.31-4.06 4.89-9.99 3.23-14.97-1.46-4.4-8.22-8.6-11.9-11.38l-10-8.03c-6.82-5.01-14.69-8.81-20-15.6h4l-4-4 13-3-2-4c3.72-.13 4.83.24 7-3l14-2-1-2c21.29.98 36.96 7.25 55 18.2zm-53-16.2l1 1v-1h-1zm-389 16.77c6.75-2.32 7.01-3.39 15-3.73 10.27-.43 10.88.83 20 3.06 2.57.63 5.68.92 8 2.06 2.24 1.1 4.52 3.2 6.42 4.84 7.03 6.07 12.54 11.2 13.05 20.99.26 4.97-3.49 18.5-5.67 22.97l-5.61 10.04-21.79 45.01-12.66 17.99c-4.52 6.36-8.44 13.28-13.91 18.91-4.12 4.25-14.16 12.82-19.83 14.3-4.57 1.19-6.76-1.19-11-1.95-3.3-.59-8.7-.31-11.74-1.82-2.87-1.42-7.84-9.4-9.04-12.44-6.63-16.78 10.36-21.96 19.67-40l4.98-9 2.55-7 11.37-16c5.49-9.59 6.98-17.6 9.69-28l3.84-14c.85-7.78-1.68-16.42-2.32-24l-7 1c2.28-3.32 2.56-2.05 6-3.23zm279.91 93.38l-4.91 1.88c-10.39 4.64-15.11 7.35-27 3.07-6.08-2.2-10.38-7.51-14.91-11.93-5.22-5.1-5.28-5.9-9.55-11.17-10.71-13.23-17.77-23.41-22.5-40-1.6-5.6-.69-7.65-1.38-13-.31-3.05-1.35-8.92 0-11.73.66-1.59 1.86-2.3 3.4-3.23 5.05-1.99 12.68-1.46 17.94 0 16.16 3.51 28.28 14.85 40 25.93 2.4 2.27 13.89 13.04 16 13.62 3.98 1.07 10.89-5.77 14-8.12 10.43-7.86 20.32-16.47 33-20.47l2 6c-8.27 6.1-25.96 23.36-29.37 33-.91 3.02.08 5.09 0 8l-3.12 13c-1.02 4.81.87 4.21-1.51 10-8.23-1.73-6.06 2.27-12.09 5.15zM1.1 3094.17c1.38-2.9 6.25-5.8 8.9-7.46l13.99-10.09c9.29-6.88 17.23-15.1 25.28-23.33L81.39 3018c21.97-29.36 42.5-59.08 60.66-91l9.21-20 10.94-20c1.92-3.61 6.03-17.06 6.59-21 .68-4.74-.66-8.4 2.22-12.96 2.96-4.69 13.55-9.18 18.99-9.95h11c5.72-.06 20.95 2.95 26 5.46l7 4.75c6.32 3.98 8.31 3.38 11.96 11.7 2.09 4.75.99 6.42 1.24 11 .38 6.83.74 14.31-1.4 20.96-1.63 5.08-3.99 6.52-4.66 9.05-1.6 6.06 11.44 14.74 15.86 17.97 9.13 6.69 26.77 15.66 30.14 27.02 1.06 2.96-.14 7.48 0 11l-17.18 13.56-11.96 2.47c-11.59 1.69-23.18-15.82-34-14.03v-4c-3.01-1.53-7.1-3.63-8-7-3.37-1.01-4.36-1.43-5-5l-3 2-4-4-2 7-11.45 12.52c-5.36 5.46-8.22 3.48-10.55 12.48-3.45 1.03-7.16 3.29-8 7-.92.24-.97-.12-2.49.82l-12.96 13.22-3.41 5.32c-2.86 3.19-6.84 2.45-14.14 12.64l13 2.81c6.25.52 18.08-2.62 24-4.93l41-20.18c4.7-2.15 11.11-5.86 16-6.52 3.94-.54 16.59-.07 20 1.07 7.25 2.44 15.41 10.36 13.11 18.71-1.33 4.84-6.43 8.11-9.66 11.63l-3.69 4.94c-3.35 3.87-15.78 8.68-21.76 15.47h-4l1 4h-7c.2 4.29 2.11 16.81 6.27 18.8 2.28 1.08 8.15-1.06 10.73-1.67 5.66-1.34 15.71-2.08 21.58-1.96 9.35.19 21.19 3.31 29.42 7.79 4.87 2.65 10.77 8.06 16 9.04 1.31 6.63 2.51 9.35 0 16l2 2c-6.59 2.98-18.63 13.59-19 21-3.46.54-4.79 2.48-7 5l-1-3-7 5 1 4-6 2-3-1-7.43 8.77L256 3143c-2.64-5.1-2.9-3.95-7-7l-1 3-6-2-5 5-8-2v5c11.13 2.1 11.56 4.36 21 9.18l16.72 7.65L293 3181c5.21 3.94 16.72 11.68 19.73 17.18 1.7 3.11 2.38 8.41 1.41 11.82-.7 2.45-2.47 4.95-2.1 7.58.21 1.47 1.26 3.12 1.96 4.42l-4 1c-1.75-3.44-2.38-3.14-6-4l-2 1c-1.32 3.53-1.75 4.95-5 7v-1l2-2c-6.11.29-6.59 1.3-10 6-1.36-4-1.69-5.21-6-4l-7-3 3 1c-4.34-3.03-5.44-.5-8 3v-6l-3 1-7-10-4 1c-.52-4.98-5.33-8.93-10-10-2.31-3.4-4.61-8.54-9-9-.88-3.76-3.08-5.97-7-6l-3-7-3 1-5-10-2 2h-1v-3l-4 1v9c-5.36 1.76-9.86 10.5-10 16-2.96 1.17-3.46 4.31-5.19 6.82-1.99 2.9-3.54 3.38-5.26 5.5l-3.27 5.59c-2.49 3.47-6 5.11-9.02 7.84l-4.48 4.81c-6.36 6.01-8.19 5.52-12.78 14.44-3.19-.14-4.96-.36-6 3-5.33-.14-13.21 3.54-17.58 6.49-3.94 2.66-6.57 6.56-10.42 1.51-2.1 2.39-1.83 2.3-5 2-1.65 3.26-4.06 5.28-7 2l2 1c-3.59-1.52-5.1-.09-7 3l-3-3-4 4-4 1c-3.45-1.2-3.53-.57-6 2l-6-4-3 1 1 2-8 5-1-4v2h-1c-.9-2-2.77-4.69-2.12-6.91.84-2.85 5.68-4.65 8.12-6.16 7.39-4.54 9.79-7.53 16-12.62l9-6.77c8.35-6.81 23.02-20.59 29.7-28.82 5.8-7.15 9.8-15.47 13.97-23.55 3.09-5.99 3.4-3.57 8.33-15.17l-4-3.02c-2.64.92-13.11 1.78-15.23 0-.97-.83-.61-1.38-.77-1.98-11.23-1.24-11.48-5.22-17-7l1-3c-11.11-4.56-15.69-14.08-21-24-2.02-3.78-4.88-7.66-5-12-7.09-4.31-18.62-27.85-7.53-36.85 4.67-3.8 8.44-1.12 13.53-1.6 10.54-.99 12.62-.87 21.05 6.12l6.83 5.66c2.43 2.53 6.54 9.34 9.41 10.51 2.98 1.21 12.41-5.39 15.71-6.96 4.76-2.26 21.11-8.84 23.52-12.01 1.73-2.27 3.2-11.84 3.19-14.87l-.71-7-16 5-1-2 1-1-6 1 2-1-3 2c-15.88-3.34-18.52-9.06-26-12-.46-3.67-2.19-5.05-4.23-8l-6.35-11.26c-2.05-1.52-5.42.46-7.42 1.39-6.46 3.02-10.31 8.92-16 9.87-1.05 4.73-15.58 9.55-17 14-3.64.96-6.16 3.77-8 7l-3-1-1 3c-3.24-1.51-3.34-1.31-6 1l-2-1-3.96 5.13L55 3081c-6.63-2.33-8.2-1.21-13 4l-3-1c-2.45 2.97-6.2 4.54-10 4l-7.98 3.57L12 3098c-3.03-1.13-8.06-.48-10.9 1-.27-1.69-.63-3.18 0-4.83zM506 2876.96c4.94-1.03 12.04-.21 17 0 4.7.21 9.67-.36 13.61 2.86 1.23.99 7.93 11.29 9.05 13.18 2.9 4.91 4.65 8.16 4.29 14l-2.48 14v12l-2.4 20v39l-5.07 37v8l-3 36-1 22c-.02 9.99-1.03 7.84-2.02 15v14c-.41 3.53-2.24 19.21-1.4 21.78.49 1.51.93 1.55 1.42 2.22-4.02 11.45-.95 6.4-1.6 15-.09 6.4-1.07 7.96 0 15 .28 4.29-.96 6.38 1.6 10-1.53 8.58-.38 27.99 5 35-1.72 7.78.74 8.84 1.49 15.58v12.25l2.91 11.17c.42 1.73 1.6 14.51 1.28 15.87-.49 2.05-3.3 4.83-4.68 7.13l-7-1c-.81 3.72-3.34 8.82-7 4-6.15 3.22-6.99 2.19-13-1l1 4h-4l-2 3-1-2 1-4h-4v4c-3.15-2.56-2.63-4.37-5.18-6.08-4.11-2.75-6.47-.44-9.82-5.92l-14 1 2-4h-5l1 3-12-5 1-2-6-4c-5.51 4.46-6.11-1.48-11-3.04-8.43-2.7-12.67 1.93-20-5.96l-1 3-7-4-4 2-3-7h-8v-3l13-1.29 26-3.83 25-.58 19-1.3-3-14-1 3c.47-3.59 1.9-14.44-2-16v-16c-.04-2.65.69-4.93-2-6 2.84-7.55.01-16.12 0-24l.69-34v-9-6-7.58l1.3-8.42v-9l2.04-11v-14l1.66-14 1.56-30 1.89-20 2.57-22 1.37-14 4.9-59c.37-7.31 3.59-15.22 0-22-2.57 5.45-3.81 5.63-6.3 10.01l-7.43 17.99c-1.04 4.1.16 11.1-4.25 13l-4.28 11-5.35 20c-1.67 3.86-4.5 6.69-5.73 11-2.15 7.48 2.18 11.47 2.02 16l-5.43 15.91-5.43 10.09-2.3 7-4.37 10.96-3.89 8.07-2.01 9.04-2.77 11.93-1.74 14c-1.11 6.84-4.37 17.97-3.72 24-4.6 4.93-2.81 7.38-4.68 12.83l-2.18 5.26c-.97 3.82-.09 4.81-2.14 8.91l-1-2c-1.3 6.06-2.52 6.83-7 11l1-3c-5.15 2.2-1.08 4.15-10 5l-1-3-1 7-12-4-2 2 1 4-6-4-2 1-1-1 2-3-6 1v2l-5 1-.59-3.83-4.29-6.21L361 3117c2.62-1.11 4.45-6.38 5.68-9 7.22-15.34 3.56-15.33 7.47-29l4.98-30v-15.09l1.62-11.91v-13l1.25-31c.08-7.04-1.11-16.14-5.51-21.91l-6.02-6.09-7.47-8-1 3-1-3h-3c8.89-2.19 11.49-.71 15-1.33 4.56-.8 10.72-5.45 15-.67 4.62-1.21 5.52-.64 10 .53 12.34 3.21 16.86 12.64 25.29 21.05 5.07 5.05 11.13 9.12 14.71 15.42 7.34-6.78 11.47-19.18 16.31-28l26.69-44 7.75-12c1.39-1.9 4-4.73 4.39-7 .32-1.88-.49-3.33-1.14-5 11.19-1.39 8.55-2.9 14-4.04zM484 2918l-1 1v-1h1zm-36 116l-1 1v-1h1zm-314 18l-1 1v-1h1zm92 4l-1 1v-1h1zm76 16l-1 1v-1h1zm-63 10l2 3-2-3zm-6 5l-5-3-2 18c4.38-2.21 7.07-4.91 7-10 3.64-1.71 5.29-3.36 7-7l-5-2-2 4zm-200 4l-1 1v-1h1zm-29 9l-1 1v-1h1zm170 10l-3 2-10 3v3l-4-2c2.13 5.44 5.27 8.44 9.33 12.54 1.3 1.3 3.42 3.65 5.48 3.3 2.49-.43 2.98-4.85 3.39-6.84 1.19-5.78 4.04-13.68.8-19l-2 4zm-8 1l1 1v-1h-1zm197 1l-1 1v-1h1zm63 1l1 1v-1h-1zm6 3l-1 1v-1h1zm-176 17l1 1v-1h-1zm147 3l1 1v-1h-1zm-3 2l1 1v-1h-1zm-14 6l-1 1v-1h1zm16 0l-1 1v-1h1zm-13 1l-1 1v-1h1zm-5 1l-1 1v-1h1zm-127 1l-1 1v-1h1zm-143 1l-1 1v-1h1zm8 6l-1 1v-1h1zm28 9l1 1v-1h-1zm2 0l1 1v-1h-1zm9 0l1 1v-1h-1zm-4 1l1 1v-1h-1zm60 6l1 1v-1h-1zm7 12l-1 1v-1h1zm12 5l1 1v-1h-1zm-27 2l-1 1v-1h1zm28 1l1 1v-1h-1zm-113 28l-1 1v-1h1zm-4 2l-1 1v-1h1zm359 2l-1 1v-1h1zm-1 9l-3 1v-3l3 2zm-302-1l-1 1v-1h1zm-5 5l-1 1v-1h1zm254 4l-1 1v-1h1zm56 3l-5-3 5 3zm-49-2l-1 1v-1h1zm-271 3l-1 1v-1h1zm252 11l1 1v-1h-1zm-299 1l1 1v-1h-1zm303 3l1 1v-1h-1zm-321 1l1 1v-1h-1zm8 0l1 1v-1h-1zm-7 1l1 1v-1h-1zm11 2l-1 1v-1h1zm-29 2l1 1v-1h-1zm381 7l1 1v-1h-1zm2 0l1 1v-1h-1zm10 4l1 1v-1h-1zm22 6l1 1v-1h-1zm1 1l1 1v-1h-1zm40 0l1 1v-1h-1zm-51 2l-1 1v-1h1zm35 4l1 1v-1h-1zm1 1l1 1v-1h-1z"/></svg>