<svg xmlns="http://www.w3.org/2000/svg" width="1906.426" height="1685.126" viewBox="0 0 1430 1264"><path fill="none" stroke="#000" d="M63 17.58l116 16.27 103 11.98 145 12.26L449 60h9l11 1 16 1 18 1 30 1 15 1 38 1 17 1h27l17 1h126l15-1h27l15-1h16l15-1 30-1 17-1 40-2 10-.91 29-2 115-9.92c110.12-11.01 219.22-27.7 328-48.17l-17 52-33 99-14 43-43-4.72-32-4.28-6.32 17-29.68 77-15 1h-54l-17 1h-56l-15 1h-5l1 16v55l1 17v55l.99 14 1.61 7.4 9.4 1.61 9 1.03h10l59 4.05 27 1.91-5.42 30-12.97 73-3.86 22-3.26 8.98L1179 590h-54l-14 1 2.83 39 2.34 32 3.74 42 8.92 110 1.34 20 8.66 103 3.34 45 13.66 165 6 73 2.17 25-56 6.16-72 7.91-31 3.59c-2.34.08-10.68 1.41-12.4 0-2.32-1.36-1.53-10.63-1.88-13.66l-.72-11-.91-11-1.09-23-.91-10-1.09-23-.91-10-1.09-23-1-10v-9l-1-13-.91-11-1.09-23-1-10v-9l-1-13-.91-11-1.09-23-1-10v-9l-1-13-.91-11-1.09-23-.91-10-1.09-23-.91-10-1.09-23-.91-10-1.09-23-1-10v-9l-1-13-.91-11-1.09-23-1-10v-9l-1-13-2-30-1.09-23-.91-11-2-33-1-13v-9l-1-10-1-21h-23l-17-1h-86l-15-1h-86l-15-1h-87l-15-1h-86l-15-1h-38l-2 35-1 16-1 17-1 24-1 16-1 22-.96 10v9L459 756l-.96 10v8L457 793l-1 17-1 16-2 40-1 17-2 41-1 17-1 12v12l-1 13-1 15-1 21-2 39-1 16-1 18-1 19-2 41-1 15-1 24-1 13-1 21-1 19-1 19-174-21 8.83-104 6-73 9-109 2.34-32 9.66-114 2.34-31 9.66-114 1.26-19 1.82-19 2.09-21-52-12.63-20.44-5.51-3.35-9.86-5.21-25-15.2-72-5.8-29h33l17-1h54l14-1v-27l-1-17v-54l-1-17v-42l-14-1-30-1-15-1-22-1-21-1-29-1-13-1-9.61-1.02L160.86 259 131 192l-23 4.61L63 205 24.33 84 0 8l63 9.58zM911 285l-17 1h-55l-16 1h-12l-9.17 87-6.83 68h52l17-1h56l15-1h19v-63l-1-17v-56l-1-14v-5h-41zm-357 5l-17 1h-56l-16 1 1.83 18 4 39L481 446.96h14l12-.96h54l17-1h42l-.91-10-2-27-5.18-75-2.91-43h-55z"/></svg>