<?xml version="1.0" encoding="UTF-8" standalone="no"?>
<!DOCTYPE svg PUBLIC "-//W3C//DTD SVG 20010904//EN"
              "http://www.w3.org/TR/2001/REC-SVG-20010904/DTD/svg10.dtd">

<svg xmlns="http://www.w3.org/2000/svg"
     width="5.15278in" height="1.58333in"
     viewBox="0 0 371 114">
  <path id="Path"
        fill="#263238" stroke="#212121" stroke-width="1"
        d="M 60.52,58.98
           C 60.52,58.98 60.52,72.00 60.52,72.00
             60.52,72.00 33.52,72.00 33.52,72.00
             33.52,72.00 33.52,114.00 33.52,114.00
             33.52,114.00 44.50,114.00 44.50,114.00
             44.50,114.00 44.50,108.98 44.50,108.98
             44.50,108.98 92.52,108.98 92.52,108.98
             92.52,108.98 92.52,112.50 92.52,112.50
             92.52,112.50 103.50,112.50 103.50,112.50
             103.50,112.50 103.50,72.00 103.50,72.00
             103.50,72.00 71.50,72.00 71.50,72.00
             71.50,72.00 71.50,58.98 71.50,58.98
             71.50,58.98 114.50,58.98 114.50,58.98
             114.50,58.98 114.50,49.00 114.50,49.00
             114.50,49.00 71.50,49.00 71.50,49.00
             71.50,49.00 71.50,36.48 71.50,36.48
             71.50,36.48 92.02,36.48 92.02,36.48
             92.02,36.48 92.02,38.00 92.02,38.00
             92.02,38.00 103.00,38.00 103.00,38.00
             103.00,38.00 103.00,3.50 103.00,3.50
             103.00,3.50 13.02,3.50 13.02,3.50
             13.02,3.50 13.02,63.50 13.02,63.50
             13.02,78.17 8.84,91.17 0.50,102.50
             0.50,102.50 9.50,110.50 9.50,110.50
             19.16,97.84 24.00,83.84 24.00,68.50
             24.00,68.50 24.00,58.98 24.00,58.98
             24.00,58.98 60.52,58.98 60.52,58.98 Z
           M 92.52,100.00
           C 92.52,100.00 44.50,100.00 44.50,100.00
             44.50,100.00 44.50,80.98 44.50,80.98
             44.50,80.98 92.52,80.98 92.52,80.98
             92.52,80.98 92.52,100.00 92.52,100.00 Z
           M 24.00,49.00
           C 24.00,49.00 24.00,36.48 24.00,36.48
             24.00,36.48 60.52,36.48 60.52,36.48
             60.52,36.48 60.52,49.00 60.52,49.00
             60.52,49.00 24.00,49.00 24.00,49.00 Z
           M 92.02,26.50
           C 92.02,26.50 24.00,26.50 24.00,26.50
             24.00,26.50 24.00,13.48 24.00,13.48
             24.00,13.48 92.02,13.48 92.02,13.48
             92.02,13.48 92.02,26.50 92.02,26.50 Z
           M 190.50,3.00
           C 190.50,3.00 177.50,0.50 177.50,0.50
             169.83,19.50 153.83,34.67 129.50,46.00
             129.50,46.00 136.50,55.50 136.50,55.50
             144.50,51.84 151.50,47.50 157.50,42.50
             157.50,42.50 157.50,51.98 157.50,51.98
             157.50,51.98 213.50,51.98 213.50,51.98
             213.50,51.98 213.50,42.00 213.50,42.00
             213.50,42.00 158.00,42.00 158.00,42.00
             168.66,34.67 177.00,24.84 183.00,12.50
             196.00,30.50 213.83,43.67 236.50,52.00
             236.50,52.00 241.50,40.50 241.50,40.50
             220.16,33.84 203.00,22.34 190.00,6.00
             192.66,4.34 192.83,3.34 190.50,3.00 Z
           M 158.50,106.48
           C 158.50,106.48 212.02,106.48 212.02,106.48
             212.02,106.48 212.02,111.50 212.02,111.50
             212.02,111.50 223.00,111.50 223.00,111.50
             223.00,111.50 223.00,63.50 223.00,63.50
             223.00,63.50 147.52,63.50 147.52,63.50
             147.52,63.50 147.52,113.00 147.52,113.00
             147.52,113.00 158.50,113.00 158.50,113.00
             158.50,113.00 158.50,106.48 158.50,106.48 Z
           M 158.50,73.48
           C 158.50,73.48 212.02,73.48 212.02,73.48
             212.02,73.48 212.02,96.50 212.02,96.50
             212.02,96.50 158.50,96.50 158.50,96.50
             158.50,96.50 158.50,73.48 158.50,73.48 Z
           M 336.00,18.00
           C 333.33,13.34 330.66,9.84 328.00,7.50
             328.00,7.50 321.00,13.00 321.00,13.00
             323.33,16.67 325.66,20.50 328.00,24.50
             328.00,24.50 336.00,18.00 336.00,18.00 Z
           M 265.00,36.00
           C 276.66,27.34 285.33,18.34 291.00,9.00
             293.33,9.00 293.83,8.17 292.50,6.50
             292.50,6.50 284.00,0.50 284.00,0.50
             278.66,10.84 270.50,19.67 259.50,27.00
             259.50,27.00 265.00,36.00 265.00,36.00 Z
           M 303.00,51.50
           C 303.00,51.50 294.00,50.00 294.00,50.00
             293.66,63.00 291.33,76.34 287.00,90.00
             287.00,90.00 296.50,93.50 296.50,93.50
             301.16,79.17 303.33,66.17 303.00,54.50
             305.00,53.17 305.00,52.17 303.00,51.50 Z
           M 323.50,51.00
           C 326.50,60.34 328.16,71.84 328.50,85.50
             328.50,85.50 338.00,84.50 338.00,84.50
             337.00,71.50 335.16,60.00 332.50,50.00
             332.50,50.00 323.50,51.00 323.50,51.00 Z
           M 338.50,16.98
           C 338.50,16.98 366.50,16.98 366.50,16.98
             366.50,16.98 366.50,7.00 366.50,7.00
             366.50,7.00 338.50,7.00 338.50,7.00
             338.50,7.00 338.50,16.98 338.50,16.98 Z
           M 335.50,37.48
           C 335.50,37.48 335.50,27.50 335.50,27.50
             335.50,27.50 318.50,27.50 318.50,27.50
             318.50,27.50 318.50,5.50 318.50,5.50
             320.83,3.84 320.66,2.84 318.00,2.50
             318.00,2.50 307.52,2.50 307.52,2.50
             307.52,2.50 307.52,27.50 307.52,27.50
             307.52,27.50 293.00,27.50 293.00,27.50
             293.00,27.50 293.00,37.48 293.00,37.48
             293.00,37.48 307.52,37.48 307.52,37.48
             307.52,37.48 307.52,109.50 307.52,109.50
             307.52,109.50 318.50,109.50 318.50,109.50
             318.50,109.50 318.50,37.48 318.50,37.48
             318.50,37.48 335.50,37.48 335.50,37.48 Z
           M 336.50,47.98
           C 336.50,47.98 347.52,47.98 347.52,47.98
             347.52,47.98 347.52,102.00 347.52,102.00
             347.52,103.00 347.34,103.50 347.00,103.50
             347.00,103.50 337.50,103.50 337.50,103.50
             337.50,103.50 339.50,113.48 339.50,113.48
             339.50,113.48 350.00,113.48 350.00,113.48
             355.66,113.48 358.50,110.49 358.50,104.50
             358.50,104.50 358.50,47.98 358.50,47.98
             358.50,47.98 371.00,47.98 371.00,47.98
             371.00,47.98 371.00,38.00 371.00,38.00
             371.00,38.00 336.50,38.00 336.50,38.00
             336.50,38.00 336.50,47.98 336.50,47.98 Z
           M 282.00,46.50
           C 285.00,41.50 287.50,36.67 289.50,32.00
             291.83,32.00 292.16,31.17 290.50,29.50
             290.50,29.50 282.50,25.00 282.50,25.00
             276.16,39.67 267.83,51.00 257.50,59.00
             257.50,59.00 262.50,69.00 262.50,69.00
             265.79,65.67 268.63,62.50 271.02,59.50
             271.02,59.50 271.02,113.50 271.02,113.50
             271.02,113.50 282.00,113.50 282.00,113.50
             282.00,113.50 282.00,46.50 282.00,46.50 Z" />
</svg>
