<?xml version="1.0" encoding="UTF-8" standalone="no"?>
<!DOCTYPE svg PUBLIC "-//W3C//DTD SVG 20010904//EN"
              "http://www.w3.org/TR/2001/REC-SVG-20010904/DTD/svg10.dtd">

<svg xmlns="http://www.w3.org/2000/svg"
     width="4.65in" height="6.11667in"
     viewBox="0 0 837 1101">
  <path id="Selection"
        fill="#263238" stroke="black" stroke-width="1"
        d="M 692.00,12.15
           C 699.38,16.82 707.42,22.34 707.96,32.00
             708.53,42.28 702.83,52.75 697.12,61.00
             689.30,72.28 676.93,82.53 664.00,87.47
             664.00,87.47 649.00,92.10 649.00,92.10
             649.00,92.10 642.00,94.90 642.00,94.90
             637.57,96.37 626.80,98.55 622.00,99.00
             616.26,93.64 614.17,97.59 609.52,95.18
             606.08,93.40 605.38,89.25 604.00,86.00
             622.16,70.23 645.96,46.09 655.82,24.00
             656.82,21.75 658.04,18.92 658.04,16.42
             658.17,11.43 655.52,11.85 658.04,6.00
             658.04,6.00 656.00,5.00 656.00,5.00
             656.00,5.00 656.00,4.00 656.00,4.00
             669.36,-4.81 680.70,5.01 692.00,12.15 Z
           M 507.00,4.56
           C 511.32,5.68 515.37,9.05 519.00,11.57
             526.54,16.79 534.55,22.44 538.71,31.00
             542.68,39.14 542.42,52.41 539.96,61.00
             538.17,67.22 534.54,75.56 531.06,81.00
             529.36,83.66 525.33,87.73 525.84,90.91
             526.32,93.98 532.52,98.51 535.00,100.23
             535.00,100.23 557.96,112.68 557.96,112.68
             557.96,112.68 566.00,119.00 566.00,119.00
             566.00,119.00 562.00,108.00 562.00,108.00
             573.08,109.50 578.05,114.57 587.00,120.66
             594.12,125.50 610.71,136.16 615.99,141.51
             619.31,144.89 621.56,149.10 624.19,153.00
             626.82,156.89 630.40,162.38 631.43,167.00
             634.72,181.75 613.62,190.78 603.09,183.41
             598.94,180.49 595.14,171.63 592.40,167.00
             592.40,167.00 574.25,136.00 574.25,136.00
             571.56,131.53 569.36,125.79 566.00,122.00
             566.00,122.00 565.27,136.00 565.27,136.00
             565.41,138.75 566.68,141.23 566.17,144.00
             565.07,150.05 553.03,159.86 548.00,163.24
             544.21,165.79 533.52,170.44 529.00,171.88
             525.88,172.88 518.60,175.03 516.60,177.42
             514.69,179.69 515.01,183.20 515.00,186.00
             515.00,186.00 515.00,209.00 515.00,209.00
             515.00,209.00 531.00,202.45 531.00,202.45
             531.00,202.45 544.00,197.94 544.00,197.94
             544.00,197.94 565.00,189.14 565.00,189.14
             565.00,189.14 574.00,185.00 574.00,185.00
             574.00,185.00 569.00,202.00 569.00,202.00
             569.00,202.00 572.00,199.00 572.00,199.00
             577.28,201.62 584.03,210.39 589.00,214.83
             589.00,214.83 600.91,225.01 600.91,225.01
             611.66,236.27 619.17,250.52 624.58,265.00
             626.45,270.01 630.34,283.96 629.40,288.96
             627.96,296.63 613.59,300.12 607.00,300.73
             603.95,301.01 601.83,301.60 599.21,299.53
             594.91,296.14 592.60,288.05 590.97,283.00
             590.97,283.00 579.68,246.00 579.68,246.00
             579.68,246.00 571.39,221.00 571.39,221.00
             571.39,221.00 570.00,207.00 570.00,207.00
             564.53,209.83 563.88,213.47 558.91,217.17
             551.21,222.91 526.93,236.45 518.00,239.00
             518.00,239.00 519.51,248.00 519.51,248.00
             521.61,257.71 527.78,277.06 527.99,286.00
             528.06,289.40 528.18,292.91 526.11,295.81
             522.13,301.40 506.80,304.19 501.04,300.28
             497.84,298.10 495.83,294.59 494.59,291.00
             492.15,283.90 486.89,264.87 488.00,258.00
             488.00,258.00 487.00,257.00 487.00,257.00
             487.00,257.00 457.00,274.85 457.00,274.85
             457.00,274.85 435.00,288.69 435.00,288.69
             431.93,290.67 426.44,294.55 423.00,295.32
             416.99,296.68 411.99,290.18 410.57,285.00
             409.91,282.63 410.00,279.48 410.00,277.00
             409.99,272.70 409.76,266.98 411.65,263.05
             413.26,259.71 419.01,255.80 422.04,253.41
             422.04,253.41 441.91,237.15 441.91,237.15
             453.76,227.77 469.08,208.34 474.00,194.00
             474.00,194.00 418.00,217.46 418.00,217.46
             398.33,226.33 369.48,240.50 348.00,240.99
             335.05,241.28 324.37,237.98 317.65,226.00
             313.83,219.20 315.43,212.20 315.43,205.00
             315.43,199.87 314.18,195.60 318.75,191.59
             320.34,190.18 325.65,189.54 328.00,189.14
             331.00,193.35 336.63,190.58 341.00,189.14
             341.00,189.14 374.00,175.81 374.00,175.81
             374.00,175.81 419.00,155.86 419.00,155.86
             419.00,155.86 435.00,149.84 435.00,149.84
             435.00,149.84 454.00,141.42 454.00,141.42
             454.00,141.42 478.00,131.40 478.00,131.40
             480.80,130.24 487.62,127.72 489.40,125.59
             491.87,122.63 491.56,108.48 492.00,104.00
             492.00,104.00 473.00,107.70 473.00,107.70
             473.00,107.70 461.00,108.46 461.00,108.46
             449.35,110.51 444.81,112.99 432.00,113.00
             432.00,113.00 450.49,94.72 450.49,94.72
             459.55,84.73 473.98,62.95 481.13,51.00
             485.50,43.70 491.81,34.05 494.36,26.00
             496.00,20.17 494.47,19.06 494.36,14.00
             494.36,14.00 496.00,4.00 496.00,4.00
             499.11,4.00 504.13,3.81 507.00,4.56 Z
           M 731.15,89.58
           C 731.15,89.58 739.07,97.96 739.07,97.96
             745.10,104.30 750.67,109.26 749.89,119.00
             749.48,124.18 745.06,133.48 742.37,138.00
             730.14,158.62 710.27,170.34 699.00,183.68
             699.00,183.68 716.00,183.68 716.00,183.68
             716.00,183.68 721.00,183.68 721.00,183.68
             724.17,183.34 725.42,182.08 729.00,182.76
             733.12,183.54 739.06,187.69 743.00,189.72
             748.24,192.42 754.53,195.95 756.35,202.00
             758.30,208.50 753.80,210.88 751.70,216.00
             749.81,220.59 750.05,226.14 750.00,231.00
             750.00,231.00 749.00,246.00 749.00,246.00
             748.98,256.18 749.90,267.30 746.45,277.00
             744.99,281.12 742.78,285.78 737.98,286.52
             735.33,286.92 732.50,285.81 730.00,285.00
             728.20,292.38 731.79,298.43 724.95,299.87
             724.95,299.87 720.00,299.87 720.00,299.87
             720.00,299.87 691.00,299.87 691.00,299.87
             691.00,299.87 682.00,298.29 682.00,298.29
             682.00,298.29 673.00,297.52 673.00,297.52
             667.92,296.47 666.32,294.33 663.00,293.35
             656.25,291.36 651.93,295.70 647.79,291.57
             642.01,285.79 640.15,271.81 638.49,264.00
             638.49,264.00 629.91,206.00 629.91,206.00
             628.29,197.49 624.99,195.49 624.00,189.00
             624.00,189.00 636.00,195.00 636.00,195.00
             636.00,195.00 635.00,191.00 635.00,191.00
             643.99,195.25 644.41,202.29 650.00,197.00
             647.64,194.53 650.01,191.02 651.28,188.11
             651.28,188.11 667.36,167.00 667.36,167.00
             667.36,167.00 693.86,123.00 693.86,123.00
             699.28,113.34 709.40,97.91 710.52,87.00
             710.90,83.26 709.38,79.71 709.00,76.00
             718.87,77.05 724.52,83.04 731.15,89.58 Z
           M 636.00,110.50
           C 636.00,110.50 643.91,114.00 643.91,114.00
             646.67,115.80 648.62,118.64 651.04,120.87
             651.04,120.87 658.79,127.13 658.79,127.13
             662.18,130.67 668.15,141.05 668.66,146.00
             670.08,159.67 654.46,165.58 643.02,159.61
             638.22,157.11 636.54,152.59 634.25,148.00
             629.52,138.56 625.31,128.95 621.79,119.00
             620.32,114.84 615.10,110.14 617.62,106.06
             622.64,104.42 631.35,108.28 636.00,110.50 Z
           M 517.00,108.00
           C 517.00,108.00 518.00,113.00 518.00,113.00
             518.00,113.00 519.00,108.00 519.00,108.00
             519.00,108.00 517.00,108.00 517.00,108.00 Z
           M 134.71,160.00
           C 134.71,160.00 135.92,151.00 135.92,151.00
             135.92,151.00 135.92,141.00 135.92,141.00
             136.03,136.36 135.91,132.43 142.00,133.36
             144.44,133.73 146.86,135.01 149.00,136.18
             153.58,138.68 158.48,141.73 160.13,147.00
             161.36,150.93 159.45,155.03 158.76,159.00
             158.76,159.00 156.00,184.00 156.00,184.00
             156.00,184.00 181.00,179.34 181.00,179.34
             186.51,179.38 191.52,182.10 196.00,185.00
             199.68,187.39 203.65,189.52 206.42,193.04
             213.17,201.76 211.21,209.91 206.42,219.00
             198.04,235.01 185.48,244.34 176.00,258.00
             186.93,258.03 211.04,260.46 221.00,264.10
             227.71,266.56 229.45,268.52 235.00,272.06
             242.86,277.09 251.87,279.49 250.89,291.00
             250.49,295.71 245.75,303.87 243.18,308.00
             233.32,323.89 217.51,337.91 198.00,338.00
             193.62,338.02 190.17,338.20 186.00,336.52
             180.10,334.14 178.87,330.68 172.00,331.00
             172.00,331.00 188.86,340.50 188.86,340.50
             190.08,341.53 190.89,342.55 191.63,344.02
             192.77,346.86 192.13,351.92 191.63,355.00
             191.23,358.58 190.97,361.71 187.85,364.01
             183.89,366.93 178.71,367.66 174.00,368.28
             166.65,369.25 154.14,370.75 147.00,370.00
             147.00,370.00 148.91,386.00 148.91,386.00
             148.91,386.00 147.00,400.00 147.00,400.00
             163.43,397.78 190.80,389.02 206.00,389.00
             206.00,389.00 238.00,388.00 238.00,388.00
             238.00,388.00 281.00,389.00 281.00,389.00
             281.00,389.00 291.00,389.62 291.00,389.62
             291.00,389.62 304.00,388.17 304.00,388.17
             306.52,387.97 310.62,387.91 313.00,388.17
             313.00,388.17 321.00,390.71 321.00,390.71
             321.00,390.71 341.00,395.35 341.00,395.35
             346.08,396.50 353.92,397.90 357.72,401.53
             366.10,409.52 361.30,430.19 344.28,429.85
             330.32,429.58 333.30,427.30 324.00,424.44
             324.00,424.44 295.00,417.42 295.00,417.42
             284.29,415.07 261.03,410.05 251.00,410.00
             242.77,409.96 229.17,408.47 221.00,407.00
             221.33,409.51 221.98,412.52 221.62,415.00
             220.80,420.73 212.87,432.51 209.75,438.00
             209.75,438.00 203.05,452.00 203.05,452.00
             203.05,452.00 188.00,478.00 188.00,478.00
             188.00,478.00 228.00,492.46 228.00,492.46
             228.00,492.46 243.00,499.80 243.00,499.80
             251.06,503.35 252.78,500.93 269.00,510.36
             279.06,516.21 284.96,517.69 283.28,530.00
             282.95,532.41 283.01,535.50 280.69,536.94
             279.07,537.95 275.96,537.63 274.00,537.83
             274.00,537.83 269.00,538.38 269.00,538.38
             266.23,538.30 253.90,534.50 251.00,533.26
             251.00,533.26 233.00,523.99 233.00,523.99
             233.00,523.99 223.00,518.05 223.00,518.05
             223.00,518.05 197.00,508.36 197.00,508.36
             197.00,508.36 178.00,505.00 178.00,505.00
             175.41,515.86 164.34,526.42 155.00,531.94
             155.00,531.94 137.00,541.15 137.00,541.15
             133.25,542.37 129.82,541.75 126.00,542.30
             119.70,543.20 113.43,545.04 107.00,544.97
             102.11,544.91 101.16,543.66 98.00,543.17
             94.43,542.99 94.95,544.09 88.00,543.17
             90.48,536.95 93.45,536.26 97.68,531.85
             99.78,529.64 100.60,528.09 103.18,526.05
             103.18,526.05 111.71,520.58 111.71,520.58
             119.75,514.67 134.76,500.61 141.00,493.00
             136.10,491.05 116.73,485.84 112.00,486.07
             105.35,486.39 103.42,490.75 98.00,491.71
             89.05,493.29 75.05,483.14 74.30,474.00
             74.30,474.00 79.00,450.00 79.00,450.00
             71.45,451.35 60.55,451.74 53.00,450.56
             53.00,450.56 42.00,448.29 42.00,448.29
             42.00,448.29 12.00,443.56 12.00,443.56
             12.00,443.56 0.00,438.00 0.00,438.00
             0.00,438.00 0.00,432.00 0.00,432.00
             8.02,431.21 10.54,432.91 18.00,433.00
             18.00,433.00 32.00,433.00 32.00,433.00
             51.22,432.97 68.10,427.77 86.00,421.50
             90.90,419.79 108.62,413.55 111.59,410.59
             113.89,408.28 115.91,402.20 117.20,399.00
             117.20,399.00 125.90,377.00 125.90,377.00
             127.20,370.60 122.15,370.94 118.17,368.13
             118.17,368.13 113.02,363.41 113.02,363.41
             108.13,358.40 108.84,356.73 112.00,351.00
             112.00,351.00 118.04,352.08 118.04,352.08
             118.04,352.08 139.00,343.00 139.00,343.00
             139.00,343.00 140.00,336.22 140.00,336.22
             134.02,335.47 132.35,337.46 128.00,336.22
             122.13,335.03 115.45,326.74 114.60,321.00
             114.24,318.58 115.33,315.34 116.00,313.00
             123.84,314.25 128.48,310.36 136.00,309.00
             136.00,309.00 135.00,295.00 135.00,295.00
             135.00,295.00 121.00,302.89 121.00,302.89
             114.15,306.44 104.98,310.62 99.00,315.38
             99.00,315.38 77.00,332.58 77.00,332.58
             74.58,334.34 69.50,338.34 67.00,339.27
             52.71,344.54 47.50,325.52 48.11,315.00
             48.11,315.00 53.00,295.00 53.00,295.00
             56.47,294.02 65.12,290.88 68.00,289.03
             73.24,285.68 82.84,275.01 87.42,270.09
             87.42,270.09 96.00,261.99 96.00,261.99
             96.00,261.99 108.00,250.17 108.00,250.17
             114.50,244.30 128.31,235.17 132.00,228.00
             117.37,223.13 106.92,198.59 106.09,184.00
             105.80,178.96 106.36,174.65 110.00,171.00
             118.51,180.09 122.55,187.88 136.00,188.00
             136.00,188.00 134.71,160.00 134.71,160.00 Z
           M 648.00,202.00
           C 651.83,212.00 658.81,218.76 660.00,232.00
             677.00,227.49 694.43,225.00 712.00,225.00
             712.00,221.72 712.43,210.66 710.93,208.23
             708.94,205.02 702.48,203.62 699.00,202.77
             686.90,199.80 692.03,200.72 680.00,199.91
             680.00,199.91 673.00,199.39 673.00,199.39
             673.00,199.39 665.00,201.00 665.00,201.00
             665.00,201.00 666.00,198.00 666.00,198.00
             666.00,198.00 648.00,202.00 648.00,202.00 Z
           M 689.00,251.37
           C 689.00,251.37 668.00,258.00 668.00,258.00
             668.00,258.00 669.00,269.00 669.00,269.00
             669.00,269.00 680.00,269.00 680.00,269.00
             680.00,269.00 710.93,267.00 710.93,267.00
             710.93,267.00 710.93,258.72 710.93,258.72
             710.93,258.72 712.00,246.00 712.00,246.00
             712.00,246.00 689.00,251.37 689.00,251.37 Z
           M 187.00,286.43
           C 187.00,286.43 169.00,282.87 169.00,282.87
             165.76,282.43 159.33,281.56 156.93,284.58
             155.12,287.08 156.54,293.04 156.93,296.00
             157.09,298.58 156.87,302.38 158.29,304.58
             161.49,309.56 178.27,308.55 176.48,317.17
             176.48,317.17 175.00,322.00 175.00,322.00
             186.57,317.57 196.84,301.92 199.00,290.00
             199.00,290.00 187.00,286.43 187.00,286.43 Z
           M 158.98,330.39
           C 157.80,332.09 157.39,334.97 157.00,337.00
             157.00,337.00 158.00,338.00 158.00,338.00
             166.10,335.87 163.21,334.14 167.42,329.21
             167.42,329.21 173.00,324.00 173.00,324.00
             168.78,323.86 161.50,326.78 158.98,330.39 Z
           M 120.00,368.00
           C 120.00,368.00 121.00,369.00 121.00,369.00
             121.00,369.00 121.00,368.00 121.00,368.00
             121.00,368.00 120.00,368.00 120.00,368.00 Z
           M 140.00,425.00
           C 137.78,441.85 137.50,446.48 132.00,463.00
             135.43,464.51 150.81,470.14 153.79,469.23
             157.06,468.22 160.33,459.17 161.72,456.00
             161.72,456.00 173.86,429.00 173.86,429.00
             176.50,423.08 178.91,420.64 180.00,414.00
             166.02,415.13 153.37,421.40 140.00,425.00 Z
           M 714.00,432.29
           C 732.35,437.11 761.19,458.55 775.17,471.59
             782.12,478.07 792.65,488.77 795.54,498.00
             797.09,502.92 796.71,507.16 797.28,512.00
             797.28,512.00 799.82,539.00 799.82,539.00
             799.82,539.00 798.08,552.00 798.08,552.00
             798.08,552.00 798.08,566.00 798.08,566.00
             798.08,566.00 796.00,594.00 796.00,594.00
             796.00,594.00 795.00,612.00 795.00,612.00
             795.00,612.00 794.00,644.00 794.00,644.00
             794.00,644.00 795.00,659.00 795.00,659.00
             795.00,659.00 795.00,679.00 795.00,679.00
             795.00,679.00 796.00,695.00 796.00,695.00
             796.00,695.00 796.00,723.00 796.00,723.00
             796.00,723.00 797.00,738.00 797.00,738.00
             797.00,738.00 797.00,753.00 797.00,753.00
             797.00,753.00 805.71,819.00 805.71,819.00
             805.71,819.00 807.17,838.00 807.17,838.00
             807.17,838.00 813.28,889.00 813.28,889.00
             813.28,889.00 819.73,931.00 819.73,931.00
             819.73,931.00 825.13,971.00 825.13,971.00
             825.13,971.00 830.08,999.00 830.08,999.00
             834.05,1022.52 835.22,1034.16 835.88,1058.00
             836.33,1074.00 838.30,1073.44 835.00,1091.00
             828.20,1092.98 827.43,1096.46 822.00,1098.30
             819.55,1099.13 817.44,1098.85 815.00,1099.26
             795.86,1102.40 800.87,1099.02 788.00,1098.00
             788.00,1098.00 775.53,1085.99 775.53,1085.99
             775.53,1085.99 772.11,1080.26 772.11,1080.26
             772.11,1080.26 762.89,1069.92 762.89,1069.92
             762.89,1069.92 746.26,1062.04 746.26,1062.04
             746.26,1062.04 738.00,1055.61 738.00,1055.61
             738.00,1055.61 703.00,1044.00 703.00,1044.00
             703.00,1044.00 706.00,1042.00 706.00,1042.00
             706.00,1042.00 704.00,1038.00 704.00,1038.00
             704.00,1038.00 712.00,1038.00 712.00,1038.00
             712.00,1038.00 702.00,1032.34 702.00,1032.34
             702.00,1032.34 688.00,1024.89 688.00,1024.89
             688.00,1024.89 666.00,1018.00 666.00,1018.00
             666.00,1018.00 682.00,1019.83 682.00,1019.83
             686.93,1021.06 686.01,1023.49 697.00,1024.00
             697.00,1024.00 697.00,1021.00 697.00,1021.00
             697.00,1021.00 711.00,1022.00 711.00,1022.00
             711.00,1022.00 703.11,1017.61 703.11,1017.61
             703.11,1017.61 695.00,1010.00 695.00,1010.00
             700.12,1011.25 719.55,1014.08 723.94,1012.26
             726.43,1011.23 726.83,1010.18 728.00,1008.00
             728.00,1008.00 758.00,1010.00 758.00,1010.00
             758.00,1010.00 756.83,998.00 756.83,998.00
             756.83,998.00 753.57,975.00 753.57,975.00
             753.57,975.00 746.28,935.00 746.28,935.00
             746.28,935.00 739.72,886.00 739.72,886.00
             739.72,886.00 736.28,865.00 736.28,865.00
             736.28,865.00 732.71,834.00 732.71,834.00
             732.71,834.00 729.72,809.00 729.72,809.00
             729.72,809.00 728.17,799.00 728.17,799.00
             728.17,799.00 726.83,781.00 726.83,781.00
             726.83,781.00 718.00,705.00 718.00,705.00
             718.00,705.00 717.00,669.00 717.00,669.00
             717.00,669.00 715.96,652.00 715.96,652.00
             715.96,652.00 715.96,639.00 715.96,639.00
             715.96,639.00 715.00,627.00 715.00,627.00
             715.00,627.00 714.00,579.00 714.00,579.00
             714.00,579.00 714.00,557.00 714.00,557.00
             714.00,557.00 715.00,540.00 715.00,540.00
             715.00,540.00 715.00,493.00 715.00,493.00
             715.00,493.00 713.61,476.00 713.61,476.00
             713.61,476.00 710.62,466.00 710.62,466.00
             710.62,466.00 709.28,457.00 709.28,457.00
             706.83,448.19 701.22,440.69 703.00,431.00
             706.91,431.47 710.09,431.26 714.00,432.29 Z
           M 704.00,440.00
           C 704.00,440.00 705.00,441.00 705.00,441.00
             705.00,441.00 705.00,440.00 705.00,440.00
             705.00,440.00 704.00,440.00 704.00,440.00 Z
           M 103.00,817.41
           C 115.57,809.47 127.46,800.08 139.00,790.69
             139.00,790.69 151.66,779.58 151.66,779.58
             155.36,775.67 154.56,774.45 160.17,769.58
             160.17,769.58 192.00,743.72 192.00,743.72
             212.74,725.47 232.87,705.97 251.96,686.00
             268.49,668.71 297.91,626.15 313.90,605.00
             313.90,605.00 347.27,563.00 347.27,563.00
             347.27,563.00 378.62,526.00 378.62,526.00
             378.62,526.00 402.05,496.01 402.05,496.01
             402.05,496.01 425.00,473.09 425.00,473.09
             425.00,473.09 432.71,466.54 432.71,466.54
             434.86,464.52 437.35,461.76 438.42,459.00
             439.58,456.00 439.46,450.92 443.21,448.74
             445.91,447.17 448.72,449.33 451.00,450.71
             455.76,453.59 463.03,459.05 467.42,462.63
             471.80,466.20 474.31,465.93 480.00,471.10
             482.62,473.49 485.14,476.22 487.33,479.00
             495.59,489.50 497.04,499.42 492.44,512.00
             492.44,512.00 489.00,520.00 489.00,520.00
             495.08,522.44 505.40,531.51 511.00,535.92
             511.00,535.92 523.96,545.01 523.96,545.01
             530.88,550.58 545.29,567.26 549.12,575.00
             554.61,586.09 552.11,595.85 546.19,606.00
             544.69,608.57 543.25,612.26 540.78,613.86
             536.46,616.67 532.50,614.97 528.00,615.13
             528.00,615.13 522.00,616.07 522.00,616.07
             510.94,617.26 501.56,608.93 494.00,602.28
             481.28,591.09 462.96,573.23 455.53,558.00
             455.53,558.00 451.00,544.00 451.00,544.00
             439.36,552.34 428.34,569.15 420.14,581.00
             420.14,581.00 389.42,623.28 389.42,623.28
             389.42,623.28 381.56,636.00 381.56,636.00
             372.19,649.35 358.73,659.92 352.00,675.00
             360.73,674.59 357.58,675.76 363.00,676.69
             364.68,676.98 377.09,676.39 379.00,675.96
             401.06,671.01 431.00,653.71 451.00,651.03
             453.59,650.80 456.41,650.50 459.00,651.03
             467.50,652.35 478.90,660.23 477.49,670.00
             476.48,677.09 472.28,680.09 467.00,684.13
             455.47,692.94 455.79,692.13 444.00,699.20
             441.21,700.87 434.24,704.63 432.73,707.18
             431.26,709.64 432.83,714.15 433.27,717.00
             433.27,717.00 436.00,740.00 436.00,740.00
             455.24,735.15 475.29,734.77 495.00,735.00
             506.47,735.14 516.60,736.58 527.00,741.54
             536.34,745.99 546.51,752.00 548.53,763.00
             549.14,766.31 549.03,768.97 547.43,772.00
             544.91,776.77 534.62,785.14 530.00,788.34
             514.78,798.88 518.09,795.52 503.00,801.87
             503.00,801.87 491.00,807.31 491.00,807.31
             491.00,807.31 478.00,811.21 478.00,811.21
             471.61,813.79 466.51,818.45 461.00,822.41
             461.00,822.41 448.00,831.00 448.00,831.00
             465.70,838.16 488.26,857.66 503.42,869.81
             512.43,877.03 522.83,884.35 528.02,895.00
             535.15,909.62 528.99,921.01 516.00,929.01
             513.85,930.34 511.36,932.28 509.00,933.03
             509.00,933.03 504.00,933.71 504.00,933.71
             499.78,934.43 497.51,936.72 493.00,935.09
             484.89,932.15 475.85,918.90 470.34,912.00
             470.34,912.00 445.29,884.00 445.29,884.00
             445.29,884.00 429.00,864.00 429.00,864.00
             429.00,884.56 427.59,880.30 424.46,898.00
             424.46,898.00 422.96,912.00 422.96,912.00
             419.19,928.01 409.51,948.32 401.95,963.00
             401.95,963.00 389.46,987.00 389.46,987.00
             389.46,987.00 357.04,1017.09 357.04,1017.09
             357.04,1017.09 345.12,1031.24 345.12,1031.24
             340.26,1035.89 328.08,1043.50 322.00,1047.20
             313.05,1052.64 304.23,1058.24 294.00,1061.00
             294.00,1061.00 295.00,1058.00 295.00,1058.00
             295.00,1058.00 268.17,1059.90 268.17,1059.90
             268.17,1059.90 261.96,1060.41 261.96,1060.41
             261.96,1060.41 255.00,1059.41 255.00,1059.41
             255.00,1059.41 242.04,1060.69 242.04,1060.69
             242.04,1060.69 231.00,1058.00 231.00,1058.00
             231.00,1058.00 231.00,1055.00 231.00,1055.00
             231.00,1055.00 225.00,1057.00 225.00,1057.00
             225.00,1057.00 226.00,1053.00 226.00,1053.00
             226.00,1053.00 221.00,1054.00 221.00,1054.00
             227.33,1045.16 231.71,1043.90 237.66,1037.57
             237.66,1037.57 242.52,1030.74 242.52,1030.74
             242.52,1030.74 248.99,1024.96 248.99,1024.96
             248.99,1024.96 257.09,1016.42 257.09,1016.42
             257.09,1016.42 299.28,980.49 299.28,980.49
             319.71,962.00 341.68,935.29 353.00,910.00
             353.00,910.00 358.56,899.00 358.56,899.00
             358.56,899.00 369.00,872.00 369.00,872.00
             370.02,868.99 373.40,861.05 371.89,858.29
             370.32,855.45 367.33,856.13 365.00,857.43
             359.59,860.46 355.05,865.09 348.00,864.72
             340.10,864.31 327.28,852.60 322.09,847.00
             314.26,838.55 300.37,819.20 294.89,809.00
             294.89,809.00 287.60,794.00 287.60,794.00
             287.60,794.00 280.56,780.03 280.56,780.03
             279.83,778.71 278.71,776.41 276.84,776.75
             275.38,777.01 268.31,784.13 266.72,785.61
             260.08,791.79 251.36,798.28 244.00,803.72
             234.04,811.07 216.43,824.25 206.00,829.81
             200.32,832.84 198.78,831.11 192.00,834.44
             192.00,834.44 169.00,845.59 169.00,845.59
             165.96,846.16 164.13,845.05 161.00,845.59
             161.00,845.59 149.00,850.15 149.00,850.15
             146.55,850.76 142.70,850.12 140.00,850.15
             140.00,850.15 141.00,846.00 141.00,846.00
             133.45,846.69 130.97,849.38 128.04,849.30
             124.11,849.21 124.17,845.74 119.82,846.38
             109.95,847.84 105.84,854.51 97.00,851.00
             97.00,851.00 98.00,848.00 98.00,848.00
             98.00,848.00 86.00,848.00 86.00,848.00
             86.00,848.00 86.00,844.00 86.00,844.00
             91.10,840.56 95.39,837.78 98.00,832.00
             98.00,832.00 93.00,834.00 93.00,834.00
             93.00,834.00 97.00,828.00 97.00,828.00
             97.00,828.00 82.00,832.00 82.00,832.00
             85.10,827.16 97.64,820.80 103.00,817.41 Z
           M 716.00,482.00
           C 716.00,482.00 717.00,483.00 717.00,483.00
             717.00,483.00 717.00,482.00 717.00,482.00
             717.00,482.00 716.00,482.00 716.00,482.00 Z
           M 717.00,497.00
           C 717.00,497.00 718.00,498.00 718.00,498.00
             718.00,498.00 718.00,497.00 718.00,497.00
             718.00,497.00 717.00,497.00 717.00,497.00 Z
           M 598.00,599.69
           C 598.00,599.69 609.00,603.27 609.00,603.27
             609.00,603.27 619.00,608.27 619.00,608.27
             636.48,616.21 655.16,626.57 664.83,644.00
             669.81,652.97 672.98,672.68 673.00,683.00
             673.00,683.00 673.00,690.00 673.00,690.00
             672.99,698.52 672.31,696.17 671.19,703.00
             666.53,731.61 656.89,753.18 647.05,780.00
             647.05,780.00 640.81,800.00 640.81,800.00
             640.23,802.93 640.02,809.58 638.71,811.57
             637.38,813.59 635.05,813.91 633.00,814.85
             633.00,814.85 626.58,818.20 626.58,818.20
             621.73,819.80 621.44,816.84 616.00,823.00
             616.00,823.00 610.00,821.59 610.00,821.59
             604.38,820.90 599.82,824.93 593.09,821.59
             584.22,817.15 576.90,797.06 573.14,788.00
             571.49,784.03 569.20,779.37 569.26,775.00
             569.26,775.00 570.53,762.00 570.53,762.00
             570.53,762.00 574.03,753.00 574.03,753.00
             574.03,753.00 579.87,730.00 579.87,730.00
             579.87,730.00 590.30,674.00 590.30,674.00
             590.30,674.00 591.95,665.00 591.95,665.00
             591.95,665.00 591.95,645.00 591.95,645.00
             591.82,630.54 586.63,628.51 582.14,618.00
             576.84,605.59 580.03,610.06 578.00,601.00
             578.00,601.00 586.00,602.00 586.00,602.00
             586.00,602.00 586.00,597.00 586.00,597.00
             586.00,597.00 589.00,598.00 589.00,598.00
             591.65,595.77 595.11,598.52 598.00,599.69 Z
           M 349.00,677.00
           C 349.00,677.00 350.00,678.00 350.00,678.00
             350.00,678.00 350.00,677.00 350.00,677.00
             350.00,677.00 349.00,677.00 349.00,677.00 Z
           M 348.00,678.00
           C 348.00,678.00 349.00,679.00 349.00,679.00
             349.00,679.00 349.00,678.00 349.00,678.00
             349.00,678.00 348.00,678.00 348.00,678.00 Z
           M 339.97,689.58
           C 339.97,689.58 331.95,700.00 331.95,700.00
             331.95,700.00 327.46,708.00 327.46,708.00
             327.46,708.00 320.75,718.00 320.75,718.00
             320.75,718.00 312.50,732.00 312.50,732.00
             312.50,732.00 302.63,746.00 302.63,746.00
             302.63,746.00 296.14,754.00 296.14,754.00
             296.14,754.00 294.00,759.00 294.00,759.00
             301.81,762.80 313.36,768.73 320.00,774.00
             323.24,776.58 329.10,783.00 333.01,783.14
             337.95,783.32 348.57,774.40 353.00,771.46
             359.44,767.20 384.94,754.32 392.00,753.00
             392.00,753.00 393.81,744.00 393.81,744.00
             393.81,744.00 397.00,723.00 397.00,723.00
             389.76,723.33 383.28,724.59 376.00,722.04
             360.16,716.48 348.79,696.13 348.00,680.00
             348.00,680.00 339.97,689.58 339.97,689.58 Z
           M 446.00,771.00
           C 446.00,771.00 436.00,770.00 436.00,770.00
             436.00,770.00 436.00,795.00 436.00,795.00
             442.67,793.58 444.16,790.53 449.00,786.17
             455.64,780.19 458.21,779.24 463.00,771.00
             463.00,771.00 446.00,771.00 446.00,771.00 Z
           M 357.00,793.80
           C 354.26,795.92 349.67,799.14 349.70,803.01
             349.73,806.04 353.16,809.70 355.00,812.00
             357.83,815.55 362.09,822.42 367.00,822.45
             369.44,822.46 372.68,820.78 375.00,819.94
             376.93,819.24 379.82,818.71 381.27,817.27
             383.44,815.09 383.84,809.02 384.27,806.00
             384.27,806.00 388.00,776.00 388.00,776.00
             382.18,777.83 362.08,789.88 357.00,793.80 Z
           M 772.00,780.00
           C 772.00,780.00 773.00,781.00 773.00,781.00
             773.00,781.00 773.00,780.00 773.00,780.00
             773.00,780.00 772.00,780.00 772.00,780.00 Z
           M 413.00,865.00
           C 413.00,865.00 414.00,866.00 414.00,866.00
             414.00,866.00 414.00,865.00 414.00,865.00
             414.00,865.00 413.00,865.00 413.00,865.00 Z
           M 746.00,920.00
           C 746.00,920.00 747.00,921.00 747.00,921.00
             747.00,921.00 747.00,920.00 747.00,920.00
             747.00,920.00 746.00,920.00 746.00,920.00 Z
           M 267.00,1033.00
           C 267.00,1033.00 268.00,1034.00 268.00,1034.00
             268.00,1034.00 268.00,1033.00 268.00,1033.00
             268.00,1033.00 267.00,1033.00 267.00,1033.00 Z
           M 746.00,1059.00
           C 746.00,1059.00 746.00,1061.00 746.00,1061.00
             746.00,1061.00 753.00,1060.00 753.00,1060.00
             753.00,1060.00 746.00,1059.00 746.00,1059.00 Z" />
</svg>
