<?xml version="1.0" encoding="UTF-8" standalone="no"?>
<!DOCTYPE svg PUBLIC "-//W3C//DTD SVG 20010904//EN"
              "http://www.w3.org/TR/2001/REC-SVG-20010904/DTD/svg10.dtd">

<svg xmlns="http://www.w3.org/2000/svg"
     width="20.6944in" height="2.02778in"
     viewBox="0 0 1490 146">
  <path id="Selection"
        fill="#263238" stroke="#212121" stroke-width="1"
        d="M 352.39,6.05
           C 355.45,0.49 363.92,-1.54 368.49,3.39
             370.31,5.35 371.95,10.35 373.00,13.00
             370.66,15.50 373.78,17.48 375.08,20.09
             378.69,27.28 377.18,30.46 389.00,29.79
             389.00,29.79 425.00,27.00 425.00,27.00
             431.95,26.97 439.09,27.07 445.96,25.86
             451.29,24.92 450.39,21.25 454.21,19.60
             456.64,18.55 472.19,19.04 476.00,19.02
             479.57,18.95 484.79,17.89 487.90,19.02
             491.34,20.32 491.72,22.82 495.10,23.68
             495.10,23.68 507.00,24.39 507.00,24.39
             510.22,24.70 519.01,23.60 521.83,22.06
             525.01,20.32 526.67,17.13 532.00,16.22
             537.66,15.26 542.44,17.03 546.00,16.88
             546.00,16.88 554.00,16.01 554.00,16.01
             554.00,16.01 576.00,16.01 576.00,16.01
             584.57,16.16 582.57,18.83 588.09,20.97
             590.99,22.10 594.90,22.00 598.00,22.06
             598.00,22.06 680.00,22.06 680.00,22.06
             680.00,22.06 691.00,22.06 691.00,22.06
             691.00,22.06 709.00,24.00 709.00,24.00
             709.00,24.00 720.00,24.00 720.00,24.00
             720.00,24.00 731.00,23.32 731.00,23.32
             731.00,23.32 776.00,25.00 776.00,25.00
             776.00,25.00 779.00,22.00 779.00,22.00
             779.00,22.00 777.00,25.00 777.00,25.00
             784.28,23.89 795.58,25.91 803.00,26.00
             803.00,26.00 820.00,26.00 820.00,26.00
             820.00,26.00 844.00,27.91 844.00,27.91
             844.00,27.91 888.00,30.09 888.00,30.09
             888.00,30.09 922.00,32.00 922.00,32.00
             922.00,32.00 954.00,34.91 954.00,34.91
             954.00,34.91 992.00,37.00 992.00,37.00
             992.00,37.00 1020.00,40.00 1020.00,40.00
             1020.00,40.00 1028.00,40.00 1028.00,40.00
             1028.00,40.00 1049.00,43.00 1049.00,43.00
             1049.00,43.00 1057.00,43.00 1057.00,43.00
             1057.00,43.00 1074.00,45.92 1074.00,45.92
             1074.00,45.92 1091.00,45.92 1091.00,45.92
             1091.00,45.92 1132.00,50.83 1132.00,50.83
             1132.00,50.83 1168.00,54.16 1168.00,54.16
             1168.00,54.16 1187.00,57.00 1187.00,57.00
             1187.00,57.00 1198.00,57.00 1198.00,57.00
             1198.00,57.00 1232.00,61.29 1232.00,61.29
             1232.00,61.29 1240.00,62.83 1240.00,62.83
             1240.00,62.83 1258.00,64.17 1258.00,64.17
             1258.00,64.17 1273.00,66.72 1273.00,66.72
             1273.00,66.72 1310.00,71.18 1310.00,71.18
             1310.00,71.18 1326.00,73.97 1326.00,73.97
             1326.00,73.97 1368.00,79.72 1368.00,79.72
             1368.00,79.72 1426.96,88.73 1426.96,88.73
             1426.96,88.73 1434.09,89.41 1434.09,89.41
             1434.09,89.41 1453.00,93.00 1453.00,93.00
             1453.00,93.00 1474.00,96.76 1474.00,96.76
             1476.72,97.22 1482.70,98.09 1484.78,99.64
             1488.74,102.60 1490.17,111.31 1489.91,116.00
             1489.36,125.63 1488.60,145.23 1476.00,145.96
             1469.52,146.33 1462.52,144.07 1456.00,143.13
             1456.00,143.13 1409.00,136.15 1409.00,136.15
             1409.00,136.15 1394.00,134.56 1394.00,134.56
             1394.00,134.56 1382.00,132.29 1382.00,132.29
             1382.00,132.29 1353.00,128.87 1353.00,128.87
             1353.00,128.87 1338.00,126.28 1338.00,126.28
             1338.00,126.28 1316.00,123.84 1316.00,123.84
             1316.00,123.84 1307.00,122.16 1307.00,122.16
             1307.00,122.16 1292.00,120.72 1292.00,120.72
             1292.00,120.72 1253.00,115.28 1253.00,115.28
             1253.00,115.28 1245.00,114.72 1245.00,114.72
             1245.00,114.72 1221.00,111.17 1221.00,111.17
             1221.00,111.17 1193.00,108.00 1193.00,108.00
             1193.00,108.00 1185.00,108.00 1185.00,108.00
             1185.00,108.00 1166.00,105.17 1166.00,105.17
             1166.00,105.17 1126.00,101.83 1126.00,101.83
             1126.00,101.83 1095.00,98.17 1095.00,98.17
             1095.00,98.17 1072.00,96.83 1072.00,96.83
             1072.00,96.83 1053.00,94.04 1053.00,94.04
             1053.00,94.04 1045.00,94.04 1045.00,94.04
             1045.00,94.04 1029.00,92.17 1029.00,92.17
             1029.00,92.17 1006.00,90.91 1006.00,90.91
             1006.00,90.91 972.00,88.00 972.00,88.00
             972.00,88.00 959.00,87.00 959.00,87.00
             959.00,87.00 950.00,87.00 950.00,87.00
             950.00,87.00 923.00,85.00 923.00,85.00
             923.00,85.00 913.00,84.09 913.00,84.09
             913.00,84.09 888.00,83.00 888.00,83.00
             888.00,83.00 873.00,82.00 873.00,82.00
             873.00,82.00 855.00,81.00 855.00,81.00
             855.00,81.00 836.00,81.00 836.00,81.00
             836.00,81.00 821.00,80.00 821.00,80.00
             821.00,80.00 797.00,78.91 797.00,78.91
             797.00,78.91 785.00,78.00 785.00,78.00
             785.00,78.00 762.00,78.00 762.00,78.00
             762.00,78.00 739.00,77.16 739.00,77.16
             739.00,77.16 710.00,77.16 710.00,77.16
             710.00,77.16 653.00,77.16 653.00,77.16
             651.26,84.37 649.22,87.87 642.00,90.63
             640.35,91.25 638.12,91.93 636.38,91.35
             633.35,90.34 631.96,85.74 629.51,83.84
             625.39,80.64 613.88,80.61 609.00,82.00
             614.18,82.73 625.92,84.66 629.30,88.53
             634.87,94.91 631.31,109.13 623.00,111.43
             617.30,113.00 604.68,108.05 599.00,106.09
             599.00,106.09 583.00,103.49 583.00,103.49
             578.20,102.44 570.23,99.03 565.42,99.18
             562.68,99.27 561.61,100.83 557.28,100.78
             557.28,100.78 529.00,97.47 529.00,97.47
             529.00,97.47 516.00,98.00 516.00,98.00
             516.00,98.00 504.00,97.10 504.00,97.10
             504.00,97.10 487.00,99.76 487.00,99.76
             487.00,99.76 478.00,101.81 478.00,101.81
             472.66,102.36 471.29,100.33 467.00,100.87
             467.00,100.87 451.00,104.54 451.00,104.54
             451.00,104.54 443.00,105.46 443.00,105.46
             443.00,105.46 417.00,111.00 417.00,111.00
             418.00,113.45 421.43,119.63 420.68,121.86
             418.67,127.85 404.08,124.78 400.26,122.40
             396.78,120.23 393.49,111.06 391.79,107.00
             390.40,103.67 387.78,96.59 390.74,93.60
             393.56,90.75 396.81,93.97 405.00,92.00
             405.00,92.00 405.00,90.00 405.00,90.00
             405.00,90.00 403.00,90.00 403.00,90.00
             403.00,90.00 404.00,86.00 404.00,86.00
             404.00,86.00 383.00,87.00 383.00,87.00
             382.58,96.14 381.52,108.43 375.15,115.43
             370.39,120.67 359.45,118.24 358.00,101.00
             358.00,101.00 361.00,102.00 361.00,102.00
             361.00,102.00 358.00,92.00 358.00,92.00
             358.00,92.00 355.00,93.00 355.00,93.00
             354.21,91.76 353.94,90.90 352.59,90.02
             349.22,87.85 337.37,90.41 333.00,90.83
             333.00,90.83 315.00,92.91 315.00,92.91
             315.00,92.91 294.00,94.28 294.00,94.28
             294.00,94.28 273.00,97.58 273.00,97.58
             273.00,97.58 253.00,99.17 253.00,99.17
             253.00,99.17 225.00,102.85 225.00,102.85
             225.00,102.85 210.00,104.27 210.00,104.27
             210.00,104.27 193.00,107.56 193.00,107.56
             193.00,107.56 170.00,110.43 170.00,110.43
             170.00,110.43 154.00,113.71 154.00,113.71
             154.00,113.71 138.00,115.44 138.00,115.44
             138.00,115.44 122.00,118.56 122.00,118.56
             122.00,118.56 98.00,121.75 98.00,121.75
             98.00,121.75 78.00,125.28 78.00,125.28
             78.00,125.28 31.00,133.23 31.00,133.23
             26.68,134.23 13.75,137.84 10.10,136.40
             6.86,135.12 5.20,131.10 4.22,128.00
             2.21,121.60 -0.07,106.77 0.00,100.00
             0.06,95.27 0.14,90.13 5.06,87.84
             8.85,86.07 23.03,84.63 28.00,83.63
             28.00,83.63 37.00,81.42 37.00,81.42
             37.00,81.42 60.00,77.80 60.00,77.80
             60.00,77.80 81.00,73.30 81.00,73.30
             81.00,73.30 87.00,72.79 87.00,72.79
             87.00,72.79 96.00,70.62 96.00,70.62
             96.00,70.62 105.00,69.39 105.00,69.39
             105.00,69.39 131.00,64.43 131.00,64.43
             131.00,64.43 144.00,62.71 144.00,62.71
             144.00,62.71 155.00,60.44 155.00,60.44
             155.00,60.44 205.00,52.70 205.00,52.70
             205.00,52.70 219.00,49.21 219.00,49.21
             219.00,49.21 252.00,45.79 252.00,45.79
             252.00,45.79 259.00,44.12 259.00,44.12
             259.00,44.12 276.00,41.44 276.00,41.44
             276.00,41.44 330.00,34.83 330.00,34.83
             330.00,34.83 349.00,32.00 349.00,32.00
             349.00,23.52 348.16,13.76 352.39,6.05 Z
           M 859.00,24.00
           C 859.00,24.00 858.00,25.00 858.00,25.00
             858.00,25.00 858.00,24.00 858.00,24.00
             858.00,24.00 859.00,24.00 859.00,24.00 Z" />
</svg>
