<?xml version="1.0" encoding="UTF-8" standalone="no"?>
<!DOCTYPE svg PUBLIC "-//W3C//DTD SVG 20010904//EN"
              "http://www.w3.org/TR/2001/REC-SVG-20010904/DTD/svg10.dtd">

<svg xmlns="http://www.w3.org/2000/svg"
     width="1.25in" height="1.26389in"
     viewBox="0 0 90 91">
  <path id="Path"
        fill="#263238" stroke="#212121" stroke-width="1"
        d="M 54.03,63.03
           C 54.03,63.03 54.03,36.86 54.03,36.86
             54.03,36.86 34.11,36.86 34.11,36.86
             34.11,36.86 34.11,30.17 34.11,30.17
             34.11,30.17 48.17,30.17 48.17,30.17
             48.17,30.17 48.17,23.19 48.17,23.19
             48.17,23.19 17.70,23.19 17.70,23.19
             21.87,20.06 25.91,15.90 29.81,10.69
             38.93,15.64 47.52,21.23 55.59,27.48
             55.59,27.48 60.28,20.06 60.28,20.06
             53.51,15.12 44.79,10.30 34.11,5.61
             34.11,5.61 34.89,4.83 34.89,4.83
             36.71,4.57 37.10,3.92 36.06,2.88
             36.06,2.88 28.25,0.14 28.25,0.14
             22.00,10.30 12.88,18.11 0.91,23.58
             0.91,23.58 5.20,31.00 5.20,31.00
             8.33,29.70 11.32,27.88 14.19,25.53
             14.19,25.53 14.19,30.17 14.19,30.17
             14.19,30.17 27.13,30.17 27.13,30.17
             27.13,30.17 27.13,36.86 27.13,36.86
             27.13,36.86 7.59,36.86 7.59,36.86
             7.59,36.86 7.59,64.98 7.59,64.98
             7.59,64.98 14.58,64.98 14.58,64.98
             14.58,64.98 14.58,61.42 14.58,61.42
             14.58,61.42 26.73,61.42 26.73,61.42
             26.22,71.48 18.27,78.53 2.86,82.56
             2.86,82.56 6.38,90.38 6.38,90.38
             17.83,87.25 26.16,81.52 31.38,73.19
             38.66,77.36 44.91,82.04 50.13,87.25
             50.13,87.25 55.59,80.22 55.59,80.22
             49.60,75.01 42.18,70.20 33.33,65.77
             33.85,64.20 34.11,62.76 34.11,61.42
             34.11,61.42 47.05,61.42 47.05,61.42
             47.05,61.42 47.05,63.03 47.05,63.03
             47.05,63.03 54.03,63.03 54.03,63.03 Z
           M 62.84,12.25
           C 62.84,12.25 62.84,70.06 62.84,70.06
             62.84,70.06 70.83,70.06 70.83,70.06
             70.83,70.06 70.83,14.59 70.83,14.59
             72.65,13.29 72.52,12.51 70.44,12.25
             70.44,12.25 62.84,12.25 62.84,12.25 Z
           M 47.05,54.44
           C 47.05,54.44 34.11,54.44 34.11,54.44
             34.11,54.44 34.11,43.84 34.11,43.84
             34.11,43.84 47.05,43.84 47.05,43.84
             47.05,43.84 47.05,54.44 47.05,54.44 Z
           M 14.58,54.44
           C 14.58,54.44 14.58,43.84 14.58,43.84
             14.58,43.84 27.13,43.84 27.13,43.84
             27.13,43.84 27.13,54.44 27.13,54.44
             27.13,54.44 14.58,54.44 14.58,54.44 Z
           M 70.44,81.00
           C 70.44,81.00 72.00,89.98 72.00,89.98
             72.00,89.98 81.77,89.98 81.77,89.98
             85.93,89.98 88.02,87.77 88.02,83.34
             88.02,83.34 88.02,4.83 88.02,4.83
             89.84,3.53 89.71,2.75 87.63,2.48
             87.63,2.48 80.03,2.48 80.03,2.48
             80.03,2.48 80.03,79.44 80.03,79.44
             80.03,80.48 79.57,81.00 78.64,81.00
             78.64,81.00 70.44,81.00 70.44,81.00 Z" />
</svg>
