<?xml version="1.0" encoding="UTF-8" standalone="no"?>
<!DOCTYPE svg PUBLIC "-//W3C//DTD SVG 20010904//EN"
              "http://www.w3.org/TR/2001/REC-SVG-20010904/DTD/svg10.dtd">

<svg xmlns="http://www.w3.org/2000/svg"
     width="1.36111in" height="1.375in"
     viewBox="0 0 98 99">
  <path id="Path"
        fill="#263238" stroke="#212121" stroke-width="1"
        d="M 58.91,58.34
           C 60.93,58.64 61.36,58.06 60.20,56.61
             60.20,56.61 51.97,50.55 51.97,50.55
             48.21,56.61 44.16,61.81 39.83,66.16
             34.63,62.40 27.98,58.64 19.89,54.88
             19.89,54.88 13.81,62.25 13.81,62.25
             21.33,65.72 27.55,69.34 32.45,73.09
             24.94,79.16 15.11,84.36 2.97,88.70
             2.97,88.70 7.75,98.23 7.75,98.23
             19.59,94.19 30.58,87.84 40.70,79.16
             45.04,82.34 50.38,87.25 56.73,93.91
             56.73,93.91 63.25,85.23 63.25,85.23
             57.75,80.03 52.55,75.54 47.64,71.78
             52.27,67.16 56.02,62.68 58.91,58.34 Z
           M 70.30,57.05
           C 70.30,74.68 73.15,86.39 78.86,92.17
             86.66,100.55 92.15,100.27 95.33,91.30
             95.04,91.88 95.91,88.13 97.94,80.03
             97.94,80.03 89.27,74.83 89.27,74.83
             89.27,75.40 88.83,77.86 87.95,82.19
             87.38,85.38 86.08,85.67 84.06,83.06
             80.88,79.01 79.28,70.92 79.28,58.78
             79.28,58.78 79.28,40.56 79.28,40.56
             79.28,40.56 4.28,40.56 4.28,40.56
             4.28,40.56 4.28,49.55 4.28,49.55
             4.28,49.55 70.30,49.55 70.30,49.55
             70.30,49.55 70.30,57.05 70.30,57.05 Z
           M 21.19,34.81
           C 21.19,34.81 74.95,34.81 74.95,34.81
             74.95,34.81 74.95,25.83 74.95,25.83
             74.95,25.83 21.19,25.83 21.19,25.83
             21.19,25.83 21.19,34.81 21.19,34.81 Z
           M 31.16,5.45
           C 33.18,5.16 33.61,4.44 32.45,3.28
             32.45,3.28 23.78,0.25 23.78,0.25
             18.88,12.09 11.07,21.92 0.38,29.73
             0.38,29.73 6.88,37.09 6.88,37.09
             13.52,32.66 19.30,26.84 24.22,19.64
             24.22,19.64 88.83,19.64 88.83,19.64
             88.83,19.64 88.83,10.66 88.83,10.66
             88.83,10.66 28.56,10.66 28.56,10.66
             28.56,10.66 31.16,5.45 31.16,5.45 Z" />
</svg>
