<?xml version="1.0" encoding="UTF-8" standalone="no"?>
<!DOCTYPE svg PUBLIC "-//W3C//DTD SVG 20010904//EN"
              "http://www.w3.org/TR/2001/REC-SVG-20010904/DTD/svg10.dtd">

<svg xmlns="http://www.w3.org/2000/svg"
     width="2.84469in" height="2.64467in"
     viewBox="0 0 256 238">
  <path id="Selection #1"
        fill="#212121" stroke="#FFFFFF" stroke-width="4"
        d="M 145.00,14.58
           C 152.59,19.31 166.56,24.90 171.61,31.04
             175.75,36.07 180.34,50.62 179.02,57.00
             178.28,60.58 171.11,71.29 168.81,75.00
             168.81,75.00 143.00,116.00 143.00,116.00
             140.12,115.46 133.77,113.71 131.99,111.30
             130.74,109.61 131.00,106.06 131.00,104.00
             130.99,98.34 129.73,89.61 131.00,85.00
             131.00,85.00 128.00,84.00 128.00,84.00
             128.00,84.00 128.00,104.00 128.00,104.00
             128.00,104.00 126.98,111.44 126.98,111.44
             126.98,111.44 117.00,115.00 117.00,115.00
             117.00,115.00 83.88,73.00 83.88,73.00
             74.94,61.28 68.85,51.56 79.53,38.01
             90.72,23.83 118.11,16.99 129.00,0.00
             136.50,6.21 134.33,7.92 145.00,14.58 Z
           M 153.00,124.76
           C 149.04,125.42 146.87,122.85 147.70,119.00
             148.30,116.21 154.74,106.10 156.60,103.00
             156.60,103.00 177.00,70.00 177.00,70.00
             181.93,62.52 184.33,57.24 194.00,56.02
             209.69,54.04 218.01,63.36 229.00,72.73
             238.89,81.16 244.75,85.52 256.00,92.00
             256.00,92.00 249.88,109.00 249.88,109.00
             245.06,127.26 244.41,143.69 225.00,153.17
             217.78,156.69 211.27,154.19 204.00,152.37
             204.00,152.37 166.00,142.42 166.00,142.42
             156.45,139.77 148.93,140.15 150.15,132.05
             150.80,127.72 154.39,127.21 158.00,126.00
             165.08,123.62 170.80,122.39 177.00,118.00
             169.99,117.58 157.37,124.04 153.00,124.76 Z
           M 53.00,155.42
           C 46.04,157.46 36.94,161.76 30.00,158.59
             15.83,152.11 11.42,125.74 6.66,112.00
             5.48,108.60 0.43,98.06 1.40,95.17
             2.34,92.37 12.19,85.73 15.00,83.63
             24.13,76.78 40.01,64.86 51.00,62.52
             54.01,61.87 57.88,61.96 61.00,62.00
             70.62,62.13 73.15,67.09 78.92,74.00
             78.92,74.00 103.20,104.00 103.20,104.00
             107.05,108.83 116.01,116.61 111.04,122.85
             108.05,126.62 105.07,125.71 101.00,124.57
             94.69,122.81 87.54,118.73 81.00,120.00
             81.00,120.00 99.00,126.67 99.00,126.67
             99.00,126.67 106.98,130.51 106.98,130.51
             106.98,130.51 109.00,138.00 109.00,138.00
             109.00,138.00 53.00,155.42 53.00,155.42 Z
           M 144.43,126.00
           C 148.80,135.12 143.37,147.38 133.00,148.81
             129.01,149.36 123.51,149.17 120.04,146.99
             110.06,140.74 108.57,119.66 128.00,116.53
             134.95,116.41 141.31,119.49 144.43,126.00 Z
           M 149.13,155.00
           C 147.32,152.52 144.65,149.42 145.91,146.13
             147.18,142.80 150.20,143.30 153.00,143.89
             153.00,143.89 170.00,148.37 170.00,148.37
             170.00,148.37 206.00,158.00 206.00,158.00
             210.43,159.28 218.47,160.96 221.58,164.27
             225.27,168.19 225.05,174.00 225.00,179.00
             224.87,190.41 218.84,200.60 214.81,211.00
             209.61,224.42 210.76,223.68 209.00,237.00
             200.21,236.10 201.66,234.02 189.00,234.00
             189.00,234.00 175.00,234.00 175.00,234.00
             161.95,234.02 150.16,238.18 139.04,227.82
             132.21,221.45 133.33,215.37 132.96,207.00
             132.96,207.00 132.00,195.00 132.00,195.00
             132.00,195.00 132.00,166.00 132.00,166.00
             131.92,159.43 128.55,154.08 137.00,151.91
             138.33,151.72 139.63,151.44 141.00,151.91
             143.96,152.52 146.35,155.73 148.20,158.00
             152.34,163.10 155.79,168.93 161.00,173.00
             158.42,166.26 153.35,160.77 149.13,155.00 Z
           M 127.00,180.00
           C 127.00,180.00 128.00,195.00 128.00,195.00
             128.00,195.00 128.00,211.00 128.00,211.00
             127.99,215.29 127.62,224.42 125.26,227.91
             121.11,234.05 112.79,235.54 106.00,236.08
             106.00,236.08 64.00,237.00 64.00,237.00
             61.06,237.00 51.43,238.34 49.74,237.00
             48.13,235.73 47.29,226.96 46.33,224.00
             42.54,212.31 35.15,201.57 35.00,189.00
             34.94,183.55 34.18,174.62 37.01,170.02
             40.67,164.05 47.73,162.22 54.00,160.28
             54.00,160.28 85.00,150.42 85.00,150.42
             85.00,150.42 107.00,144.24 107.00,144.24
             110.05,144.13 113.42,145.71 113.96,149.02
             114.41,151.71 111.76,154.91 110.29,157.00
             106.37,162.56 102.00,167.88 99.00,174.00
             99.00,174.00 111.13,160.00 111.13,160.00
             111.13,160.00 118.17,152.82 118.17,152.82
             118.17,152.82 126.00,152.82 126.00,152.82
             126.00,152.82 127.00,180.00 127.00,180.00 Z" />
</svg>
