<?xml version="1.0" encoding="UTF-8" standalone="no"?>
<!DOCTYPE svg PUBLIC "-//W3C//DTD SVG 20010904//EN"
              "http://www.w3.org/TR/2001/REC-SVG-20010904/DTD/svg10.dtd">

<svg xmlns="http://www.w3.org/2000/svg"
     width="1.26389in" height="1.25in"
     viewBox="0 0 91 90">
  <path id="Path"
        fill="#263238" stroke="#212121" stroke-width="1"
        d="M 28.48,73.66
           C 38.18,65.15 46.09,54.06 52.22,40.39
             52.22,40.39 52.22,62.83 52.22,62.83
             52.22,62.83 42.41,62.83 42.41,62.83
             42.41,62.83 42.41,70.81 42.41,70.81
             42.41,70.81 52.22,70.81 52.22,70.81
             52.22,70.81 52.22,89.13 52.22,89.13
             52.22,89.13 60.20,89.13 60.20,89.13
             60.20,89.13 60.20,70.81 60.20,70.81
             60.20,70.81 71.41,70.81 71.41,70.81
             71.41,70.81 71.41,62.83 71.41,62.83
             71.41,62.83 60.20,62.83 60.20,62.83
             60.20,62.83 60.20,40.39 60.20,40.39
             65.61,51.73 73.86,62.95 84.95,74.03
             84.95,74.03 90.36,66.30 90.36,66.30
             75.92,53.11 66.64,40.43 62.52,28.27
             62.52,28.27 88.05,28.27 88.05,28.27
             88.05,28.27 88.05,20.28 88.05,20.28
             88.05,20.28 60.20,20.28 60.20,20.28
             60.20,20.28 60.20,3.27 60.20,3.27
             62.00,1.98 61.88,1.20 59.81,0.95
             59.81,0.95 52.22,0.95 52.22,0.95
             52.22,0.95 52.22,20.28 52.22,20.28
             52.22,20.28 26.17,20.28 26.17,20.28
             26.17,20.28 26.17,28.27 26.17,28.27
             26.17,28.27 50.53,28.27 50.53,28.27
             44.60,42.21 35.32,54.89 22.69,66.30
             22.69,66.30 28.48,73.66 28.48,73.66 Z
           M 26.94,3.66
           C 26.94,3.66 18.44,0.56 18.44,0.56
             15.08,18.09 9.02,32.79 0.25,44.64
             0.25,44.64 5.67,51.61 5.67,51.61
             8.40,48.78 10.63,45.42 12.38,41.55
             12.38,41.55 12.38,89.89 12.38,89.89
             12.38,89.89 20.36,89.89 20.36,89.89
             20.36,89.89 20.36,27.25 20.36,27.25
             22.42,26.22 22.42,25.31 20.36,24.53
             22.68,18.61 24.49,12.29 25.78,5.59
             27.84,5.34 28.23,4.69 26.94,3.66 Z" />
</svg>
