<?xml version="1.0" encoding="UTF-8" standalone="no"?>
<!DOCTYPE svg PUBLIC "-//W3C//DTD SVG 20010904//EN"
              "http://www.w3.org/TR/2001/REC-SVG-20010904/DTD/svg10.dtd">

<svg xmlns="http://www.w3.org/2000/svg"
     width="4.97222in" height="6.50556in"
     viewBox="0 0 895 1171">
  <path id="Selection #1"
        fill="#263238" stroke="black" stroke-width="1"
        d="M 560.00,76.71
           C 553.85,77.47 548.42,76.74 542.00,78.80
             533.52,81.52 533.31,87.31 527.97,86.72
             520.03,85.85 521.08,77.57 521.85,72.00
             522.08,70.35 522.13,68.73 523.02,67.26
             524.05,65.55 527.34,63.33 529.00,61.96
             529.00,61.96 545.17,49.65 545.17,49.65
             545.17,49.65 563.00,39.78 563.00,39.78
             576.03,32.23 599.02,20.17 613.00,15.51
             629.27,10.10 651.91,6.00 669.00,3.71
             669.00,3.71 686.00,1.00 686.00,1.00
             686.00,1.00 695.00,1.00 695.00,1.00
             699.10,0.44 700.44,-0.14 705.00,0.04
             729.02,0.97 751.74,7.36 774.00,16.08
             774.00,16.08 793.00,22.95 793.00,22.95
             793.00,22.95 824.71,41.49 824.71,41.49
             829.28,45.37 839.29,59.25 841.44,65.00
             846.00,77.18 845.14,84.68 845.00,97.00
             844.85,109.69 836.52,136.91 833.51,151.00
             833.51,151.00 827.34,182.00 827.34,182.00
             827.34,182.00 823.46,198.00 823.46,198.00
             823.46,198.00 821.39,215.00 821.39,215.00
             821.39,215.00 815.28,239.00 815.28,239.00
             811.34,254.36 814.70,259.01 803.85,274.00
             803.85,274.00 791.58,291.00 791.58,291.00
             789.70,293.59 786.42,298.42 783.83,300.07
             781.02,301.85 777.07,301.91 773.83,301.45
             773.83,301.45 767.00,301.45 767.00,301.45
             767.00,301.45 757.00,301.45 757.00,301.45
             757.00,301.45 733.99,298.01 733.99,298.01
             733.99,298.01 716.00,288.69 716.00,288.69
             713.07,287.48 701.50,284.99 698.00,284.44
             676.99,281.15 657.77,284.58 637.00,287.31
             637.00,287.31 591.83,294.18 591.83,294.18
             591.83,294.18 562.00,301.41 562.00,301.41
             558.60,301.96 545.41,303.72 543.18,305.02
             539.47,307.19 539.01,311.56 532.98,316.67
             525.58,322.96 503.38,329.56 494.00,326.01
             490.66,324.74 485.85,321.22 483.00,318.99
             466.31,305.91 464.15,295.57 457.09,277.00
             457.09,277.00 451.36,262.00 451.36,262.00
             451.36,262.00 447.27,246.00 447.27,246.00
             441.16,222.94 439.03,210.16 435.41,187.00
             432.28,167.01 428.14,144.10 428.00,124.00
             427.90,108.82 432.10,88.94 438.17,75.00
             442.53,65.00 451.36,47.74 451.00,37.00
             456.84,36.02 458.66,38.86 463.00,42.39
             471.55,49.36 474.67,53.62 478.54,64.00
             478.54,64.00 483.88,85.00 483.88,85.00
             483.88,85.00 487.52,97.00 487.52,97.00
             487.52,97.00 494.74,129.00 494.74,129.00
             494.74,129.00 508.00,178.00 508.00,178.00
             523.03,165.85 533.45,156.04 551.00,146.78
             551.00,146.78 569.00,137.48 569.00,137.48
             571.87,135.97 575.27,134.88 576.98,131.89
             578.95,128.46 578.78,120.06 579.17,116.00
             579.17,116.00 580.00,102.00 580.00,102.00
             580.00,102.00 582.00,72.00 582.00,72.00
             582.00,72.00 560.00,76.71 560.00,76.71 Z
           M 753.58,71.00
           C 754.86,66.34 759.49,49.98 758.17,46.09
             756.92,42.37 752.21,40.27 749.00,38.53
             738.12,32.62 727.12,31.86 715.00,32.00
             698.48,32.20 679.02,40.32 664.00,46.77
             664.00,46.77 615.00,63.00 615.00,63.00
             617.48,69.87 627.67,74.13 632.66,80.04
             638.86,87.37 640.00,99.76 640.00,109.00
             640.00,109.00 680.00,101.99 680.00,101.99
             691.86,100.23 692.15,96.18 709.00,101.99
             713.03,103.36 728.54,112.66 732.00,115.47
             732.00,115.47 742.00,124.00 742.00,124.00
             742.00,124.00 753.58,71.00 753.58,71.00 Z
           M 673.00,137.35
           C 673.00,137.35 653.00,141.63 653.00,141.63
             650.20,142.35 643.33,143.99 641.31,145.72
             638.77,147.91 639.02,150.95 639.00,154.00
             639.00,154.00 639.00,182.00 639.00,182.00
             645.67,178.85 651.78,171.30 657.09,166.17
             666.16,157.40 680.95,146.27 687.00,135.00
             681.43,134.20 678.32,136.09 673.00,137.35 Z
           M 720.00,164.96
           C 720.00,164.96 711.00,169.21 711.00,169.21
             711.00,169.21 700.00,176.11 700.00,176.11
             700.00,176.11 665.00,190.21 665.00,190.21
             665.00,190.21 649.00,195.88 649.00,195.88
             646.49,196.45 641.72,197.03 640.34,199.48
             639.22,201.48 640.75,208.39 641.05,211.00
             641.05,211.00 642.70,220.00 642.70,220.00
             642.70,220.00 646.00,244.00 646.00,244.00
             662.48,241.83 673.76,240.11 690.58,241.66
             694.09,241.99 701.89,242.63 700.92,236.95
             699.37,227.82 688.13,230.25 682.00,224.04
             691.15,225.98 692.28,223.60 700.00,224.04
             704.60,224.38 714.30,225.91 718.37,223.01
             721.35,220.88 725.08,210.70 726.14,207.00
             726.14,207.00 731.46,176.00 731.46,176.00
             731.46,176.00 736.00,155.00 736.00,155.00
             736.00,155.00 720.00,164.96 720.00,164.96 Z
           M 566.00,189.77
           C 560.18,193.13 553.25,194.67 552.00,202.00
             560.49,203.62 571.84,208.31 580.00,206.00
             580.00,206.00 578.00,183.00 578.00,183.00
             572.91,184.95 570.57,187.13 566.00,189.77 Z
           M 639.00,189.00
           C 639.00,189.00 645.00,184.00 645.00,184.00
             640.86,184.69 640.29,184.96 639.00,189.00 Z
           M 520.10,221.00
           C 520.10,221.00 525.22,242.00 525.22,242.00
             527.96,250.63 531.72,258.95 533.00,268.00
             533.00,268.00 556.00,262.28 556.00,262.28
             556.00,262.28 579.00,257.91 579.00,257.91
             579.00,257.91 588.00,256.00 588.00,256.00
             588.00,256.00 583.29,242.00 583.29,242.00
             582.18,236.92 581.85,231.34 578.73,227.00
             570.26,215.23 564.10,216.14 552.00,211.54
             552.00,211.54 537.00,205.40 537.00,205.40
             532.79,204.42 529.55,205.99 526.00,205.40
             522.81,204.83 519.74,202.65 517.00,201.00
             515.13,206.10 518.80,215.62 520.10,221.00 Z
           M 153.00,207.04
           C 169.93,213.42 198.15,233.21 211.00,246.00
             217.62,252.59 227.70,263.84 230.34,272.99
             230.98,275.18 230.84,278.57 231.00,281.00
             238.82,277.75 249.53,277.80 258.00,276.57
             258.00,276.57 287.00,273.16 287.00,273.16
             287.00,273.16 299.00,273.97 299.00,273.97
             303.68,274.12 308.39,273.94 313.01,274.84
             313.01,274.84 322.00,277.34 322.00,277.34
             322.00,277.34 337.00,281.60 337.00,281.60
             345.06,285.07 345.68,286.59 352.01,290.68
             361.90,297.06 380.23,307.83 380.96,321.00
             381.57,332.06 375.57,333.89 367.00,338.53
             367.00,338.53 334.00,355.03 334.00,355.03
             334.00,355.03 316.00,365.00 316.00,365.00
             316.00,365.00 318.00,361.00 318.00,361.00
             318.00,361.00 317.00,360.00 317.00,360.00
             310.01,363.30 296.63,365.67 289.00,363.95
             289.00,363.95 276.00,360.20 276.00,360.20
             272.62,358.83 272.14,357.91 268.00,356.84
             259.30,354.59 257.93,355.48 250.04,354.95
             243.70,354.54 244.61,351.86 237.00,354.00
             244.86,356.69 259.06,364.63 253.69,374.91
             252.34,377.48 242.99,384.99 240.09,387.72
             230.92,396.35 224.39,404.89 213.00,411.37
             205.13,415.85 196.57,418.31 188.00,421.00
             188.88,423.84 190.30,426.95 189.55,429.96
             187.95,436.44 174.73,442.12 169.00,449.00
             201.72,433.76 223.38,425.95 260.00,426.00
             260.00,426.00 285.00,427.32 285.00,427.32
             285.00,427.32 291.00,428.76 291.00,428.76
             291.00,428.76 298.72,429.58 298.72,429.58
             298.72,429.58 313.00,438.56 313.00,438.56
             317.34,440.56 329.82,445.49 332.73,447.91
             335.04,449.84 336.67,453.33 338.06,456.00
             347.20,473.57 339.79,487.34 332.50,504.00
             332.50,504.00 328.72,512.00 328.72,512.00
             328.72,512.00 326.30,520.00 326.30,520.00
             322.23,531.50 314.65,547.37 304.96,554.96
             299.04,559.60 292.09,560.04 285.00,557.96
             282.07,557.10 277.59,554.85 275.00,554.69
             269.47,554.33 269.33,557.97 256.00,558.00
             256.00,558.00 241.00,559.00 241.00,559.00
             241.00,559.00 227.00,558.04 227.00,558.04
             227.00,558.04 215.00,558.04 215.00,558.04
             215.00,558.04 191.00,556.00 191.00,556.00
             165.86,555.71 161.34,550.84 146.00,549.68
             139.07,549.16 130.88,554.59 125.00,558.00
             121.43,555.70 117.34,553.92 114.47,550.70
             105.54,540.71 98.34,520.96 94.74,508.00
             94.74,508.00 90.45,492.00 90.45,492.00
             88.09,486.08 82.71,479.79 83.60,473.29
             84.12,469.46 86.31,465.55 90.72,466.48
             93.68,467.11 107.31,475.28 114.00,474.66
             118.45,474.25 124.88,467.11 128.00,464.00
             128.00,464.00 137.68,454.00 137.68,454.00
             137.68,454.00 157.00,430.00 157.00,430.00
             151.23,428.58 144.16,428.70 139.04,425.64
             132.29,421.60 128.28,405.63 126.37,398.00
             126.37,398.00 122.39,378.00 122.39,378.00
             121.49,375.53 120.02,372.64 116.96,372.81
             111.54,373.11 101.71,383.10 98.07,386.99
             98.07,386.99 56.66,428.00 56.66,428.00
             54.59,430.60 51.01,435.01 49.89,438.00
             48.50,441.69 49.56,445.34 45.77,447.91
             42.60,450.07 39.50,449.24 36.00,449.09
             32.19,448.92 31.29,449.43 28.00,449.68
             24.26,449.96 13.24,448.66 10.00,446.86
             2.06,442.46 3.29,434.62 2.96,427.00
             2.96,427.00 1.89,417.00 1.89,417.00
             1.44,412.80 -0.11,410.18 1.89,406.00
             4.71,399.95 8.53,398.32 13.17,394.61
             19.23,389.77 25.23,384.21 30.72,378.72
             41.77,367.64 54.93,348.05 64.52,335.00
             68.72,329.29 76.53,315.94 77.21,309.00
             78.01,300.82 73.79,296.36 76.64,294.04
             79.04,292.08 88.14,294.97 91.00,295.82
             104.77,299.94 104.96,300.58 117.01,307.86
             119.29,309.24 126.46,314.82 128.09,315.00
             131.07,315.35 139.88,310.01 143.00,308.55
             143.00,308.55 151.00,305.49 151.00,305.49
             159.68,301.85 167.67,297.88 177.00,296.00
             177.00,296.00 177.00,293.00 177.00,293.00
             169.66,290.52 167.91,286.51 162.00,282.89
             156.84,279.73 151.44,279.41 147.84,273.98
             140.14,262.38 143.20,253.82 141.74,245.00
             140.39,236.81 135.82,229.38 135.18,221.00
             135.18,221.00 136.00,208.00 136.00,208.00
             136.00,208.00 140.00,207.00 140.00,207.00
             140.00,207.00 139.00,204.00 139.00,204.00
             139.00,204.00 153.00,207.04 153.00,207.04 Z
           M 240.00,323.83
           C 240.00,323.83 221.00,325.49 221.00,325.49
             202.37,328.02 178.11,335.92 161.00,343.79
             153.49,347.24 136.79,355.64 131.06,360.80
             123.62,367.51 133.57,371.27 138.00,370.57
             138.00,370.57 153.00,364.45 153.00,364.45
             153.00,364.45 185.00,353.04 185.00,353.04
             192.16,350.91 199.62,350.57 207.00,349.83
             207.00,349.83 222.00,348.34 222.00,348.34
             223.82,348.42 225.13,348.82 227.00,348.34
             231.02,347.34 240.18,339.04 245.00,336.14
             250.50,332.84 260.05,327.60 263.00,322.00
             263.00,322.00 240.00,323.83 240.00,323.83 Z
           M 189.00,383.00
           C 179.24,386.34 174.25,389.75 166.93,396.87
             164.64,399.10 160.41,403.01 164.51,405.98
             167.83,408.38 175.41,405.23 179.00,404.28
             193.81,400.36 206.75,395.33 209.00,378.00
             209.00,378.00 189.00,383.00 189.00,383.00 Z
           M 802.00,426.55
           C 804.57,426.00 806.17,425.02 809.00,425.26
             812.05,425.52 816.13,427.84 819.00,429.14
             829.93,434.10 837.83,441.30 844.96,450.91
             852.33,460.84 863.13,474.88 866.24,487.00
             867.00,489.95 867.87,501.96 867.62,505.00
             867.23,509.59 865.44,512.67 865.84,521.00
             865.84,521.00 865.84,582.00 865.84,582.00
             865.84,582.00 865.84,596.00 865.84,596.00
             865.84,596.00 865.00,607.00 865.00,607.00
             865.00,607.00 865.00,652.00 865.00,652.00
             865.00,652.00 865.66,661.00 865.66,661.00
             865.66,661.00 865.00,673.00 865.00,673.00
             865.00,673.00 864.00,712.00 864.00,712.00
             864.00,712.00 863.04,724.00 863.04,724.00
             863.04,724.00 863.04,737.00 863.04,737.00
             863.04,737.00 862.04,749.00 862.04,749.00
             862.04,749.00 862.04,766.00 862.04,766.00
             862.04,766.00 861.30,785.00 861.30,785.00
             861.30,785.00 861.90,794.00 861.90,794.00
             861.90,794.00 861.90,809.42 861.90,809.42
             861.90,809.42 864.85,856.00 864.85,856.00
             864.85,856.00 864.85,869.00 864.85,869.00
             864.85,869.00 864.00,882.00 864.00,882.00
             864.00,882.00 865.00,900.00 865.00,900.00
             865.00,900.00 866.00,926.00 866.00,926.00
             866.00,926.00 867.00,945.00 867.00,945.00
             867.01,956.72 869.28,980.33 871.29,992.00
             871.29,992.00 873.67,1001.00 873.67,1001.00
             873.67,1001.00 878.00,1026.00 878.00,1026.00
             879.36,1053.94 894.71,1088.16 895.00,1113.00
             895.09,1121.46 893.77,1144.73 890.44,1151.90
             889.00,1155.00 886.73,1155.60 884.84,1158.21
             883.40,1160.19 882.98,1162.71 881.30,1164.02
             878.87,1165.92 872.24,1165.32 869.00,1165.81
             869.00,1165.81 862.00,1167.80 862.00,1167.80
             862.00,1167.80 856.00,1168.61 856.00,1168.61
             856.00,1168.61 849.00,1171.00 849.00,1171.00
             849.00,1171.00 851.00,1165.00 851.00,1165.00
             842.07,1166.52 841.09,1164.63 833.00,1162.21
             833.00,1162.21 822.00,1159.20 822.00,1159.20
             822.00,1159.20 801.00,1155.48 801.00,1155.48
             798.87,1154.63 793.03,1151.97 791.54,1150.50
             789.87,1148.84 789.64,1147.05 786.86,1144.52
             786.86,1144.52 777.17,1137.48 777.17,1137.48
             777.17,1137.48 767.58,1127.29 767.58,1127.29
             762.64,1122.33 754.80,1118.85 752.00,1114.00
             752.00,1114.00 761.00,1116.00 761.00,1116.00
             761.00,1116.00 754.00,1108.00 754.00,1108.00
             754.00,1108.00 765.00,1109.00 765.00,1109.00
             765.00,1109.00 749.00,1098.00 749.00,1098.00
             749.00,1098.00 751.00,1093.00 751.00,1093.00
             745.83,1091.53 743.26,1089.18 740.00,1085.00
             744.35,1082.13 742.62,1079.21 746.23,1078.58
             746.23,1078.58 754.96,1078.58 754.96,1078.58
             759.23,1078.47 760.01,1076.00 765.00,1075.21
             772.92,1073.97 794.86,1078.02 793.85,1061.00
             793.85,1061.00 789.00,1020.00 789.00,1020.00
             789.00,1020.00 787.45,1004.00 787.45,1004.00
             787.45,1004.00 782.43,968.00 782.43,968.00
             782.43,968.00 779.00,918.00 779.00,918.00
             779.00,918.00 779.00,864.00 779.00,864.00
             779.00,864.00 780.00,848.00 780.00,848.00
             780.00,848.00 780.00,820.00 780.00,820.00
             780.00,820.00 780.99,800.00 780.99,800.00
             780.99,800.00 779.90,791.00 779.90,791.00
             779.90,791.00 779.90,776.00 779.90,776.00
             779.90,776.00 779.00,765.00 779.00,765.00
             779.00,765.00 779.00,739.00 779.00,739.00
             779.00,739.00 779.98,721.00 779.98,721.00
             779.98,721.00 779.98,702.00 779.98,702.00
             779.98,702.00 782.00,671.00 782.00,671.00
             782.00,671.00 782.00,662.00 782.00,662.00
             782.00,662.00 783.00,650.00 783.00,650.00
             783.00,650.00 784.00,630.00 784.00,630.00
             784.00,630.00 784.00,602.00 784.00,602.00
             784.00,602.00 785.00,587.00 785.00,587.00
             785.00,587.00 785.00,565.00 785.00,565.00
             785.09,553.30 790.00,507.36 792.08,495.00
             792.08,495.00 798.68,456.00 798.68,456.00
             799.78,441.47 789.58,442.63 781.00,440.00
             784.38,436.44 790.99,433.78 796.00,434.48
             798.07,434.76 801.01,436.16 803.00,437.00
             803.00,437.00 804.00,436.00 804.00,436.00
             804.00,436.00 804.00,434.00 804.00,434.00
             804.00,434.00 791.00,430.00 791.00,430.00
             793.96,425.75 797.42,427.53 802.00,426.55 Z
           M 212.00,456.67
           C 202.43,459.09 194.38,464.66 186.00,469.54
             186.00,469.54 166.00,480.14 166.00,480.14
             162.37,482.17 152.75,486.99 151.73,491.04
             150.83,494.62 156.69,501.22 158.52,505.00
             159.64,507.28 162.90,515.85 164.56,516.94
             166.14,517.89 170.08,517.16 172.00,516.94
             172.00,516.94 191.58,514.87 191.58,514.87
             200.96,514.20 215.15,513.34 224.00,510.99
             226.10,510.43 232.14,509.04 233.61,508.02
             236.09,506.29 240.04,498.00 241.45,495.00
             245.44,486.45 253.18,462.08 254.00,453.00
             239.77,452.36 225.91,453.14 212.00,456.67 Z
           M 744.01,491.00
           C 740.18,497.65 735.47,509.58 733.29,517.00
             729.25,530.80 731.14,526.02 729.72,538.00
             729.72,538.00 727.83,558.00 727.83,558.00
             727.83,558.00 726.06,567.00 726.06,567.00
             726.06,567.00 726.06,575.00 726.06,575.00
             725.13,582.00 723.08,589.31 720.98,596.00
             716.93,608.90 712.25,617.08 706.79,629.00
             706.79,629.00 701.69,642.00 701.69,642.00
             698.46,649.06 692.50,659.28 691.77,667.00
             691.17,673.40 700.49,679.93 704.66,685.01
             704.66,685.01 720.24,703.28 720.24,703.28
             725.24,710.57 728.92,719.68 731.77,728.00
             735.35,738.44 735.37,743.45 736.09,754.00
             736.09,754.00 737.00,765.00 737.00,765.00
             737.12,793.43 727.83,832.24 718.14,859.00
             714.56,868.88 710.71,875.96 705.56,885.00
             702.48,890.40 698.63,896.80 693.00,899.86
             685.75,903.81 668.87,900.11 660.00,900.51
             658.63,900.57 648.41,904.32 638.00,904.91
             632.27,905.23 624.26,902.60 620.85,897.79
             619.32,895.64 618.31,890.78 617.25,888.00
             617.25,888.00 611.49,873.00 611.49,873.00
             609.29,866.00 607.35,867.10 606.77,858.00
             606.77,858.00 608.00,844.00 608.00,844.00
             612.32,841.29 612.91,835.67 614.27,831.00
             614.27,831.00 622.88,800.00 622.88,800.00
             629.42,772.42 634.32,728.86 629.39,701.00
             626.91,687.00 624.68,687.21 620.26,676.00
             620.26,676.00 612.00,651.00 612.00,651.00
             612.00,651.00 616.00,651.00 616.00,651.00
             616.00,651.00 620.00,643.00 620.00,643.00
             625.47,642.01 626.86,643.92 632.00,644.70
             644.66,646.63 647.15,647.42 659.00,652.94
             665.01,655.74 673.10,660.60 679.00,662.00
             679.77,656.36 686.83,642.09 689.43,636.00
             689.43,636.00 698.36,610.00 698.36,610.00
             698.36,610.00 702.30,600.00 702.30,600.00
             702.30,600.00 709.54,577.00 709.54,577.00
             709.54,577.00 715.41,560.00 715.41,560.00
             720.30,542.37 725.23,524.89 732.43,508.00
             739.47,491.48 742.77,489.28 751.00,475.00
             751.65,480.83 746.80,486.17 744.01,491.00 Z
           M 460.00,485.83
           C 462.95,486.07 464.27,484.87 467.00,485.07
             467.00,485.07 479.00,487.61 479.00,487.61
             485.53,489.31 492.20,493.38 498.00,496.72
             509.25,503.19 520.80,509.54 529.75,519.17
             538.80,528.90 544.25,540.61 543.07,554.00
             542.81,556.93 542.69,560.14 541.35,562.83
             538.95,567.65 521.30,579.21 516.00,581.00
             518.82,586.32 521.88,586.33 527.00,588.78
             530.56,590.49 540.81,596.20 543.71,598.44
             560.09,611.04 578.67,629.37 590.79,646.04
             590.79,646.04 599.61,660.00 599.61,660.00
             599.61,660.00 609.88,678.00 609.88,678.00
             611.34,680.77 613.34,683.78 613.47,687.00
             613.73,693.75 607.52,708.17 604.00,714.00
             597.25,712.84 594.98,716.45 589.00,719.14
             585.98,720.49 582.24,721.91 579.00,722.53
             570.57,724.16 569.77,723.02 564.00,731.00
             561.79,729.73 558.24,727.17 556.00,726.69
             553.23,726.09 551.04,727.69 547.17,724.57
             541.90,720.31 529.49,702.36 525.18,696.00
             525.18,696.00 514.51,681.00 514.51,681.00
             514.51,681.00 509.56,672.00 509.56,672.00
             509.56,672.00 503.62,663.58 503.62,663.58
             499.00,656.75 496.46,650.53 493.46,643.00
             489.26,632.47 484.66,634.35 484.00,620.00
             484.00,620.00 476.72,627.37 476.72,627.37
             476.72,627.37 465.04,637.00 465.04,637.00
             465.04,637.00 432.83,674.00 432.83,674.00
             432.83,674.00 406.32,701.83 406.32,701.83
             406.32,701.83 381.72,730.00 381.72,730.00
             381.72,730.00 353.24,763.00 353.24,763.00
             353.24,763.00 320.96,809.00 320.96,809.00
             320.96,809.00 294.00,839.00 294.00,839.00
             307.25,843.25 310.59,845.50 320.99,854.72
             323.93,857.33 333.12,866.77 336.00,867.51
             339.54,868.41 347.45,863.04 351.00,861.44
             351.00,861.44 376.00,850.05 376.00,850.05
             376.00,850.05 383.00,846.43 383.00,846.43
             388.85,843.92 397.08,841.86 400.28,835.98
             403.33,830.37 402.33,815.05 403.00,808.00
             395.78,808.00 390.10,809.26 383.00,807.31
             367.80,803.15 360.72,788.73 360.00,774.00
             365.47,773.74 374.06,771.55 379.00,769.24
             379.00,769.24 386.00,765.34 386.00,765.34
             386.00,765.34 419.00,747.59 419.00,747.59
             419.00,747.59 428.00,743.69 428.00,743.69
             436.05,739.63 445.55,733.11 454.71,732.91
             454.71,732.91 462.00,732.91 462.00,732.91
             462.00,732.91 472.83,734.68 472.83,734.68
             482.79,736.67 486.69,736.49 491.28,747.00
             492.42,749.62 493.52,752.12 493.80,755.00
             494.58,762.88 487.78,770.00 482.00,774.47
             482.00,774.47 443.00,795.29 443.00,795.29
             440.28,796.80 435.43,798.57 433.39,800.49
             426.60,806.92 431.91,817.55 432.00,827.00
             442.92,822.80 454.60,819.29 466.00,816.68
             466.00,816.68 474.00,815.32 474.00,815.32
             481.43,813.45 479.21,809.65 484.11,809.22
             484.11,809.22 499.00,810.93 499.00,810.93
             499.00,810.93 505.00,813.10 505.00,813.10
             509.41,814.13 510.49,812.68 514.00,813.10
             524.45,814.58 540.57,821.40 540.58,834.00
             540.59,840.15 531.10,852.68 527.41,858.00
             523.93,863.02 516.88,872.73 512.91,877.00
             506.47,883.90 501.82,884.72 495.04,889.75
             490.49,893.12 489.61,897.05 484.98,900.57
             481.43,903.28 470.71,906.20 466.00,907.58
             466.00,907.58 449.01,911.80 449.01,911.80
             446.77,912.54 444.59,913.59 444.04,916.10
             443.22,919.84 446.21,922.40 449.02,924.13
             449.02,924.13 471.00,935.73 471.00,935.73
             490.99,945.80 505.70,956.34 522.08,971.65
             528.00,977.19 536.88,986.73 537.81,995.00
             539.35,1008.66 528.42,1017.02 517.00,1021.42
             513.98,1022.58 510.23,1024.09 507.00,1024.37
             507.00,1024.37 491.00,1022.84 491.00,1022.84
             487.49,1022.45 481.01,1021.48 478.00,1019.87
             469.29,1015.21 457.09,998.02 450.41,990.00
             445.75,984.40 437.72,974.95 436.00,968.00
             436.00,968.00 433.00,968.00 433.00,968.00
             431.37,979.57 428.43,983.85 424.25,994.00
             422.38,998.54 421.50,1001.56 418.89,1006.00
             418.89,1006.00 413.02,1015.00 413.02,1015.00
             406.76,1025.50 397.90,1041.02 389.82,1049.99
             385.76,1054.49 380.71,1057.69 376.00,1061.45
             357.37,1076.30 340.12,1086.01 317.00,1091.90
             317.00,1091.90 309.00,1094.47 309.00,1094.47
             309.00,1094.47 302.00,1094.47 302.00,1094.47
             302.00,1094.47 291.00,1097.20 291.00,1097.20
             291.00,1097.20 273.00,1099.31 273.00,1099.31
             270.67,1099.24 268.34,1099.83 266.00,1099.31
             260.89,1098.90 258.38,1095.85 254.00,1095.13
             254.00,1095.13 236.00,1094.04 236.00,1094.04
             236.00,1094.04 223.00,1095.00 223.00,1095.00
             209.95,1095.02 204.24,1093.71 191.00,1098.00
             193.83,1092.86 200.23,1089.65 205.00,1086.29
             205.00,1086.29 239.96,1063.42 239.96,1063.42
             239.96,1063.42 264.00,1047.74 264.00,1047.74
             264.00,1047.74 282.00,1036.51 282.00,1036.51
             292.24,1029.02 302.32,1020.87 311.58,1012.20
             311.58,1012.20 326.17,997.58 326.17,997.58
             326.17,997.58 340.68,983.00 340.68,983.00
             347.63,974.66 361.02,952.58 363.00,942.00
             363.00,942.00 355.28,940.72 355.28,940.72
             348.62,940.30 344.88,942.56 338.00,938.64
             330.88,934.57 323.78,922.95 319.31,916.00
             308.20,898.73 299.47,883.62 293.02,864.00
             290.53,856.41 288.19,853.27 288.00,845.00
             288.00,845.00 265.04,866.82 265.04,866.82
             265.04,866.82 235.28,891.20 235.28,891.20
             235.28,891.20 219.00,904.00 219.00,904.00
             219.00,904.00 223.00,897.00 223.00,897.00
             223.00,897.00 222.00,896.00 222.00,896.00
             222.00,896.00 207.00,906.53 207.00,906.53
             207.00,906.53 178.00,919.54 178.00,919.54
             178.00,919.54 159.00,923.95 159.00,923.95
             159.00,923.95 149.00,928.00 149.00,928.00
             149.00,928.00 137.00,929.00 137.00,929.00
             137.00,929.00 138.00,925.00 138.00,925.00
             138.00,925.00 128.00,929.08 128.00,929.08
             128.00,929.08 123.00,929.08 123.00,929.08
             123.00,929.08 116.00,930.00 116.00,930.00
             114.41,925.92 108.58,927.91 105.00,928.03
             105.00,928.03 94.00,928.03 94.00,928.03
             89.34,929.05 86.02,932.00 81.00,931.00
             88.45,927.60 88.73,926.14 92.00,919.00
             92.00,919.00 79.00,920.00 79.00,920.00
             86.35,915.39 88.03,915.75 93.00,908.00
             93.00,908.00 79.00,914.00 79.00,914.00
             83.95,908.38 89.76,908.29 90.00,900.00
             98.45,895.07 119.23,879.03 125.96,872.00
             125.96,872.00 139.09,856.09 139.09,856.09
             139.09,856.09 147.00,848.96 147.00,848.96
             147.00,848.96 175.04,820.74 175.04,820.74
             175.04,820.74 196.00,801.83 196.00,801.83
             196.00,801.83 215.00,783.04 215.00,783.04
             215.00,783.04 224.63,774.00 224.63,774.00
             224.63,774.00 241.25,752.00 241.25,752.00
             241.25,752.00 264.45,722.00 264.45,722.00
             264.45,722.00 270.71,714.72 270.71,714.72
             270.71,714.72 283.51,697.00 283.51,697.00
             283.51,697.00 325.22,646.42 325.22,646.42
             325.22,646.42 357.29,607.00 357.29,607.00
             357.29,607.00 370.09,592.00 370.09,592.00
             370.09,592.00 397.80,562.00 397.80,562.00
             397.80,562.00 408.33,548.00 408.33,548.00
             408.33,548.00 424.87,527.00 424.87,527.00
             430.74,519.17 446.38,499.52 448.00,491.00
             451.37,489.79 451.55,487.26 452.00,484.00
             452.00,484.00 460.00,485.83 460.00,485.83 Z
           M 620.00,646.00
           C 620.00,646.00 621.00,647.00 621.00,647.00
             621.00,647.00 621.00,646.00 621.00,646.00
             621.00,646.00 620.00,646.00 620.00,646.00 Z
           M 515.00,649.00
           C 515.00,649.00 516.00,650.00 516.00,650.00
             516.00,650.00 516.00,649.00 516.00,649.00
             516.00,649.00 515.00,649.00 515.00,649.00 Z
           M 446.00,843.25
           C 443.16,844.39 438.92,845.15 437.60,848.22
             435.75,852.54 440.79,864.47 441.00,874.00
             441.00,874.00 449.55,864.00 449.55,864.00
             449.55,864.00 466.00,837.00 466.00,837.00
             455.69,839.32 455.69,839.33 446.00,843.25 Z
           M 365.82,887.04
           C 363.67,889.70 361.21,893.41 361.41,897.00
             361.67,901.70 366.59,904.65 370.00,911.00
             372.65,910.14 375.61,909.26 377.79,907.45
             380.11,905.53 381.42,902.64 382.75,900.00
             386.51,892.55 389.24,885.26 390.68,877.00
             390.68,877.00 392.00,869.00 392.00,869.00
             384.44,870.71 370.66,881.07 365.82,887.04 Z
           M 149.00,925.00
           C 149.00,925.00 150.00,926.00 150.00,926.00
             150.00,926.00 150.00,925.00 150.00,925.00
             150.00,925.00 149.00,925.00 149.00,925.00 Z" />
</svg>
