<?xml version="1.0" encoding="UTF-8" standalone="no"?>
<!DOCTYPE svg PUBLIC "-//W3C//DTD SVG 20010904//EN"
              "http://www.w3.org/TR/2001/REC-SVG-20010904/DTD/svg10.dtd">

<svg xmlns="http://www.w3.org/2000/svg"
     width="5.625in" height="1.79167in"
     viewBox="0 0 405 129">
  <path id="Path"
        fill="#263238" stroke="#212121" stroke-width="1"
        d="M 46.55,102.03
           C 46.55,102.03 13.84,102.03 13.84,102.03
             13.84,102.03 13.84,68.33 13.84,68.33
             13.84,68.33 46.55,68.33 46.55,68.33
             46.55,68.33 46.55,102.03 46.55,102.03 Z
           M 13.84,57.34
           C 13.84,57.34 13.84,24.77 13.84,24.77
             13.84,24.77 46.55,24.77 46.55,24.77
             46.55,24.77 46.55,57.34 46.55,57.34
             46.55,57.34 13.84,57.34 13.84,57.34 Z
           M 92.47,24.77
           C 92.47,24.77 92.47,57.34 92.47,57.34
             92.47,57.34 58.53,57.34 58.53,57.34
             58.53,57.34 58.53,24.77 58.53,24.77
             58.53,24.77 92.47,24.77 92.47,24.77 Z
           M 58.53,102.03
           C 58.53,102.03 58.53,68.33 58.53,68.33
             58.53,68.33 92.47,68.33 92.47,68.33
             92.47,68.33 92.47,102.03 92.47,102.03
             92.47,102.03 58.53,102.03 58.53,102.03 Z
           M 105.45,13.78
           C 105.45,13.78 0.86,13.78 0.86,13.78
             0.86,13.78 0.86,121.03 0.86,121.03
             0.86,121.03 13.84,121.03 13.84,121.03
             13.84,121.03 13.84,113.02 13.84,113.02
             13.84,113.02 92.47,113.02 92.47,113.02
             92.47,113.02 92.47,119.36 92.47,119.36
             92.47,119.36 105.45,119.36 105.45,119.36
             105.45,119.36 105.45,13.78 105.45,13.78 Z
           M 137.03,14.89
           C 137.03,14.89 137.03,43.38 137.03,43.38
             137.03,43.38 149.02,43.38 149.02,43.38
             149.02,43.38 149.02,25.88 149.02,25.88
             149.02,25.88 243.17,25.88 243.17,25.88
             243.17,25.88 243.17,43.38 243.17,43.38
             243.17,43.38 255.16,43.38 255.16,43.38
             255.16,43.38 255.16,14.89 255.16,14.89
             255.16,14.89 202.09,14.89 202.09,14.89
             202.09,14.89 202.09,5.95 202.09,5.95
             205.44,3.73 205.25,2.23 201.53,1.48
             201.53,1.48 189.11,1.48 189.11,1.48
             189.11,1.48 189.11,14.89 189.11,14.89
             189.11,14.89 137.03,14.89 137.03,14.89 Z
           M 231.69,36.13
           C 231.69,36.13 159.94,36.13 159.94,36.13
             159.94,36.13 159.94,74.11 159.94,74.11
             159.94,74.11 171.92,74.11 171.92,74.11
             171.92,74.11 171.92,70.13 171.92,70.13
             171.92,70.13 190.36,70.13 190.36,70.13
             190.36,70.13 186.45,83.59 186.45,83.59
             186.45,83.59 149.89,83.59 149.89,83.59
             149.89,83.59 149.89,128.30 149.89,128.30
             149.89,128.30 161.88,128.30 161.88,128.30
             161.88,128.30 161.88,123.19 161.88,123.19
             161.88,123.19 230.33,123.19 230.33,123.19
             230.33,123.19 230.33,126.61 230.33,126.61
             230.33,126.61 242.31,126.61 242.31,126.61
             242.31,126.61 242.31,83.59 242.31,83.59
             242.31,83.59 198.73,83.59 198.73,83.59
             198.73,83.59 203.20,70.13 203.20,70.13
             203.20,70.13 219.70,70.13 219.70,70.13
             219.70,70.13 219.70,72.42 219.70,72.42
             219.70,72.42 231.69,72.42 231.69,72.42
             231.69,72.42 231.69,36.13 231.69,36.13 Z
           M 219.70,60.14
           C 219.70,60.14 171.92,60.14 171.92,60.14
             171.92,60.14 171.92,46.11 171.92,46.11
             171.92,46.11 219.70,46.11 219.70,46.11
             219.70,46.11 219.70,60.14 219.70,60.14 Z
           M 230.33,93.58
           C 230.33,93.58 230.33,113.20 230.33,113.20
             230.33,113.20 161.88,113.20 161.88,113.20
             161.88,113.20 161.88,93.58 161.88,93.58
             161.88,93.58 230.33,93.58 230.33,93.58 Z
           M 305.98,21.59
           C 301.14,16.01 295.37,11.17 288.67,7.08
             288.67,7.08 280.30,17.13 280.30,17.13
             286.62,21.59 292.39,26.62 297.61,32.20
             297.61,32.20 305.98,21.59 305.98,21.59 Z
           M 358.50,4.84
           C 361.84,2.61 361.66,1.12 357.94,0.38
             357.94,0.38 345.52,0.38 345.52,0.38
             345.52,0.38 345.52,15.45 345.52,15.45
             345.52,15.45 309.34,15.45 309.34,15.45
             309.34,15.45 309.34,26.44 309.34,26.44
             309.34,26.44 338.39,26.44 338.39,26.44
             338.39,26.44 328.33,47.84 328.33,47.84
             328.33,47.84 309.34,48.41 309.34,48.41
             309.34,48.41 313.25,61.25 313.25,61.25
             314.74,62.74 315.67,62.18 316.05,59.58
             316.05,59.58 382.52,54.55 382.52,54.55
             382.52,54.55 391.45,63.48 391.45,63.48
             391.45,63.48 400.95,55.67 400.95,55.67
             392.38,45.98 381.95,37.61 369.67,30.53
             369.67,30.53 360.73,36.13 360.73,36.13
             360.73,36.13 373.02,45.61 373.02,45.61
             373.02,45.61 340.06,47.30 340.06,47.30
             340.06,47.30 352.91,26.44 352.91,26.44
             352.91,26.44 399.83,26.44 399.83,26.44
             399.83,26.44 399.83,15.45 399.83,15.45
             399.83,15.45 358.50,15.45 358.50,15.45
             358.50,15.45 358.50,4.84 358.50,4.84 Z
           M 285.88,126.61
           C 287.74,126.98 288.30,126.05 287.55,123.83
             293.88,113.39 300.02,99.61 305.98,82.48
             305.98,82.48 295.94,75.78 295.94,75.78
             289.98,91.05 283.09,105.02 275.27,117.67
             275.27,117.67 285.88,126.61 285.88,126.61 Z
           M 304.31,53.44
           C 299.47,49.34 293.13,44.88 285.31,40.03
             285.31,40.03 278.06,50.64 278.06,50.64
             284.76,55.48 290.90,60.14 296.48,64.61
             296.48,64.61 304.31,53.44 304.31,53.44 Z
           M 356.81,70.19
           C 359.43,68.34 359.24,67.22 356.27,66.84
             356.27,66.84 344.83,66.84 344.83,66.84
             344.83,66.84 344.83,119.91 344.83,119.91
             344.83,119.91 356.81,119.91 356.81,119.91
             356.81,119.91 356.81,70.19 356.81,70.19 Z
           M 369.41,116.56
           C 369.41,123.13 372.66,126.42 379.16,126.42
             379.16,126.42 393.69,126.42 393.69,126.42
             398.16,126.42 400.95,124.07 402.06,119.36
             403.18,114.88 403.92,110.23 404.30,105.39
             404.30,105.39 393.13,102.59 393.13,102.59
             393.13,102.59 392.02,111.53 392.02,111.53
             391.64,114.14 390.52,115.44 388.66,115.44
             388.66,115.44 385.31,115.44 385.31,115.44
             382.70,115.44 381.39,113.95 381.39,110.97
             381.39,110.97 381.39,69.08 381.39,69.08
             384.00,67.21 383.82,66.09 380.84,65.72
             380.84,65.72 369.41,65.72 369.41,65.72
             369.41,65.72 369.41,116.56 369.41,116.56 Z
           M 331.69,69.64
           C 334.29,67.78 334.10,66.66 331.13,66.28
             331.13,66.28 319.70,66.28 319.70,66.28
             319.70,66.28 319.70,90.30 319.70,90.30
             319.70,102.21 312.71,111.90 298.72,119.36
             298.72,119.36 306.55,128.84 306.55,128.84
             323.30,120.28 331.69,108.18 331.69,92.53
             331.69,92.53 331.69,69.64 331.69,69.64 Z" />
</svg>
