<?xml version="1.0" encoding="UTF-8" standalone="no"?>
<!DOCTYPE svg PUBLIC "-//W3C//DTD SVG 20010904//EN"
              "http://www.w3.org/TR/2001/REC-SVG-20010904/DTD/svg10.dtd">

<svg xmlns="http://www.w3.org/2000/svg"
     width="19.8586in" height="17.5534in"
     viewBox="0 0 1430 1264">
  <path id="Selection"
        fill="none" stroke="black" stroke-width="1"
        d="M 63.00,17.58
           C 63.00,17.58 179.00,33.85 179.00,33.85
             179.00,33.85 282.00,45.83 282.00,45.83
             282.00,45.83 427.00,58.09 427.00,58.09
             427.00,58.09 449.00,60.00 449.00,60.00
             449.00,60.00 458.00,60.00 458.00,60.00
             458.00,60.00 469.00,61.00 469.00,61.00
             469.00,61.00 485.00,62.00 485.00,62.00
             485.00,62.00 503.00,63.00 503.00,63.00
             503.00,63.00 533.00,64.00 533.00,64.00
             533.00,64.00 548.00,65.00 548.00,65.00
             548.00,65.00 586.00,66.00 586.00,66.00
             586.00,66.00 603.00,67.00 603.00,67.00
             603.00,67.00 630.00,67.00 630.00,67.00
             630.00,67.00 647.00,68.00 647.00,68.00
             647.00,68.00 773.00,68.00 773.00,68.00
             773.00,68.00 788.00,67.00 788.00,67.00
             788.00,67.00 815.00,67.00 815.00,67.00
             815.00,67.00 830.00,66.00 830.00,66.00
             830.00,66.00 846.00,66.00 846.00,66.00
             846.00,66.00 861.00,65.00 861.00,65.00
             861.00,65.00 891.00,64.00 891.00,64.00
             891.00,64.00 908.00,63.00 908.00,63.00
             908.00,63.00 948.00,61.00 948.00,61.00
             948.00,61.00 958.00,60.09 958.00,60.09
             958.00,60.09 987.00,58.09 987.00,58.09
             987.00,58.09 1102.00,48.17 1102.00,48.17
             1212.12,37.16 1321.22,20.47 1430.00,0.00
             1430.00,0.00 1413.00,52.00 1413.00,52.00
             1413.00,52.00 1380.00,151.00 1380.00,151.00
             1380.00,151.00 1366.00,194.00 1366.00,194.00
             1366.00,194.00 1323.00,189.28 1323.00,189.28
             1323.00,189.28 1291.00,185.00 1291.00,185.00
             1291.00,185.00 1284.68,202.00 1284.68,202.00
             1284.68,202.00 1255.00,279.00 1255.00,279.00
             1255.00,279.00 1240.00,280.00 1240.00,280.00
             1240.00,280.00 1186.00,280.00 1186.00,280.00
             1186.00,280.00 1169.00,281.00 1169.00,281.00
             1169.00,281.00 1113.00,281.00 1113.00,281.00
             1113.00,281.00 1098.00,282.00 1098.00,282.00
             1098.00,282.00 1093.00,282.00 1093.00,282.00
             1093.00,282.00 1094.00,298.00 1094.00,298.00
             1094.00,298.00 1094.00,353.00 1094.00,353.00
             1094.00,353.00 1095.00,370.00 1095.00,370.00
             1095.00,370.00 1095.00,425.00 1095.00,425.00
             1095.00,425.00 1095.99,439.00 1095.99,439.00
             1095.99,439.00 1097.60,446.40 1097.60,446.40
             1097.60,446.40 1107.00,448.01 1107.00,448.01
             1107.00,448.01 1116.00,449.04 1116.00,449.04
             1116.00,449.04 1126.00,449.04 1126.00,449.04
             1126.00,449.04 1185.00,453.09 1185.00,453.09
             1185.00,453.09 1212.00,455.00 1212.00,455.00
             1212.00,455.00 1206.58,485.00 1206.58,485.00
             1206.58,485.00 1193.61,558.00 1193.61,558.00
             1193.61,558.00 1189.75,580.00 1189.75,580.00
             1189.75,580.00 1186.49,588.98 1186.49,588.98
             1186.49,588.98 1179.00,590.00 1179.00,590.00
             1179.00,590.00 1125.00,590.00 1125.00,590.00
             1125.00,590.00 1111.00,591.00 1111.00,591.00
             1111.00,591.00 1113.83,630.00 1113.83,630.00
             1113.83,630.00 1116.17,662.00 1116.17,662.00
             1116.17,662.00 1119.91,704.00 1119.91,704.00
             1119.91,704.00 1128.83,814.00 1128.83,814.00
             1128.83,814.00 1130.17,834.00 1130.17,834.00
             1130.17,834.00 1138.83,937.00 1138.83,937.00
             1138.83,937.00 1142.17,982.00 1142.17,982.00
             1142.17,982.00 1155.83,1147.00 1155.83,1147.00
             1155.83,1147.00 1161.83,1220.00 1161.83,1220.00
             1161.83,1220.00 1164.00,1245.00 1164.00,1245.00
             1164.00,1245.00 1108.00,1251.16 1108.00,1251.16
             1108.00,1251.16 1036.00,1259.07 1036.00,1259.07
             1036.00,1259.07 1005.00,1262.66 1005.00,1262.66
             1002.66,1262.74 994.32,1264.07 992.60,1262.66
             990.28,1261.30 991.07,1252.03 990.72,1249.00
             990.72,1249.00 990.00,1238.00 990.00,1238.00
             990.00,1238.00 989.09,1227.00 989.09,1227.00
             989.09,1227.00 988.00,1204.00 988.00,1204.00
             988.00,1204.00 987.09,1194.00 987.09,1194.00
             987.09,1194.00 986.00,1171.00 986.00,1171.00
             986.00,1171.00 985.09,1161.00 985.09,1161.00
             985.09,1161.00 984.00,1138.00 984.00,1138.00
             984.00,1138.00 983.00,1128.00 983.00,1128.00
             983.00,1128.00 983.00,1119.00 983.00,1119.00
             983.00,1119.00 982.00,1106.00 982.00,1106.00
             982.00,1106.00 981.09,1095.00 981.09,1095.00
             981.09,1095.00 980.00,1072.00 980.00,1072.00
             980.00,1072.00 979.00,1062.00 979.00,1062.00
             979.00,1062.00 979.00,1053.00 979.00,1053.00
             979.00,1053.00 978.00,1040.00 978.00,1040.00
             978.00,1040.00 977.09,1029.00 977.09,1029.00
             977.09,1029.00 976.00,1006.00 976.00,1006.00
             976.00,1006.00 975.00,996.00 975.00,996.00
             975.00,996.00 975.00,987.00 975.00,987.00
             975.00,987.00 974.00,974.00 974.00,974.00
             974.00,974.00 973.09,963.00 973.09,963.00
             973.09,963.00 972.00,940.00 972.00,940.00
             972.00,940.00 971.09,930.00 971.09,930.00
             971.09,930.00 970.00,907.00 970.00,907.00
             970.00,907.00 969.09,897.00 969.09,897.00
             969.09,897.00 968.00,874.00 968.00,874.00
             968.00,874.00 967.09,864.00 967.09,864.00
             967.09,864.00 966.00,841.00 966.00,841.00
             966.00,841.00 965.00,831.00 965.00,831.00
             965.00,831.00 965.00,822.00 965.00,822.00
             965.00,822.00 964.00,809.00 964.00,809.00
             964.00,809.00 963.09,798.00 963.09,798.00
             963.09,798.00 962.00,775.00 962.00,775.00
             962.00,775.00 961.00,765.00 961.00,765.00
             961.00,765.00 961.00,756.00 961.00,756.00
             961.00,756.00 960.00,743.00 960.00,743.00
             960.00,743.00 958.00,713.00 958.00,713.00
             958.00,713.00 956.91,690.00 956.91,690.00
             956.91,690.00 956.00,679.00 956.00,679.00
             956.00,679.00 954.00,646.00 954.00,646.00
             954.00,646.00 953.00,633.00 953.00,633.00
             953.00,633.00 953.00,624.00 953.00,624.00
             953.00,624.00 952.00,614.00 952.00,614.00
             952.00,614.00 951.00,593.00 951.00,593.00
             951.00,593.00 928.00,593.00 928.00,593.00
             928.00,593.00 911.00,592.00 911.00,592.00
             911.00,592.00 825.00,592.00 825.00,592.00
             825.00,592.00 810.00,591.00 810.00,591.00
             810.00,591.00 724.00,591.00 724.00,591.00
             724.00,591.00 709.00,590.00 709.00,590.00
             709.00,590.00 622.00,590.00 622.00,590.00
             622.00,590.00 607.00,589.00 607.00,589.00
             607.00,589.00 521.00,589.00 521.00,589.00
             521.00,589.00 506.00,588.00 506.00,588.00
             506.00,588.00 468.00,588.00 468.00,588.00
             468.00,588.00 466.00,623.00 466.00,623.00
             466.00,623.00 465.00,639.00 465.00,639.00
             465.00,639.00 464.00,656.00 464.00,656.00
             464.00,656.00 463.00,680.00 463.00,680.00
             463.00,680.00 462.00,696.00 462.00,696.00
             462.00,696.00 461.00,718.00 461.00,718.00
             461.00,718.00 460.04,728.00 460.04,728.00
             460.04,728.00 460.04,737.00 460.04,737.00
             460.04,737.00 459.00,756.00 459.00,756.00
             459.00,756.00 458.04,766.00 458.04,766.00
             458.04,766.00 458.04,774.00 458.04,774.00
             458.04,774.00 457.00,793.00 457.00,793.00
             457.00,793.00 456.00,810.00 456.00,810.00
             456.00,810.00 455.00,826.00 455.00,826.00
             455.00,826.00 453.00,866.00 453.00,866.00
             453.00,866.00 452.00,883.00 452.00,883.00
             452.00,883.00 450.00,924.00 450.00,924.00
             450.00,924.00 449.00,941.00 449.00,941.00
             449.00,941.00 448.00,953.00 448.00,953.00
             448.00,953.00 448.00,965.00 448.00,965.00
             448.00,965.00 447.00,978.00 447.00,978.00
             447.00,978.00 446.00,993.00 446.00,993.00
             446.00,993.00 445.00,1014.00 445.00,1014.00
             445.00,1014.00 443.00,1053.00 443.00,1053.00
             443.00,1053.00 442.00,1069.00 442.00,1069.00
             442.00,1069.00 441.00,1087.00 441.00,1087.00
             441.00,1087.00 440.00,1106.00 440.00,1106.00
             440.00,1106.00 438.00,1147.00 438.00,1147.00
             438.00,1147.00 437.00,1162.00 437.00,1162.00
             437.00,1162.00 436.00,1186.00 436.00,1186.00
             436.00,1186.00 435.00,1199.00 435.00,1199.00
             435.00,1199.00 434.00,1220.00 434.00,1220.00
             434.00,1220.00 433.00,1239.00 433.00,1239.00
             433.00,1239.00 432.00,1258.00 432.00,1258.00
             432.00,1258.00 258.00,1237.00 258.00,1237.00
             258.00,1237.00 266.83,1133.00 266.83,1133.00
             266.83,1133.00 272.83,1060.00 272.83,1060.00
             272.83,1060.00 281.83,951.00 281.83,951.00
             281.83,951.00 284.17,919.00 284.17,919.00
             284.17,919.00 293.83,805.00 293.83,805.00
             293.83,805.00 296.17,774.00 296.17,774.00
             296.17,774.00 305.83,660.00 305.83,660.00
             305.83,660.00 307.09,641.00 307.09,641.00
             307.09,641.00 308.91,622.00 308.91,622.00
             308.91,622.00 311.00,601.00 311.00,601.00
             311.00,601.00 259.00,588.37 259.00,588.37
             259.00,588.37 238.56,582.86 238.56,582.86
             238.56,582.86 235.21,573.00 235.21,573.00
             235.21,573.00 230.00,548.00 230.00,548.00
             230.00,548.00 214.80,476.00 214.80,476.00
             214.80,476.00 209.00,447.00 209.00,447.00
             209.00,447.00 242.00,447.00 242.00,447.00
             242.00,447.00 259.00,446.00 259.00,446.00
             259.00,446.00 313.00,446.00 313.00,446.00
             313.00,446.00 327.00,445.00 327.00,445.00
             327.00,445.00 327.00,418.00 327.00,418.00
             327.00,418.00 326.00,401.00 326.00,401.00
             326.00,401.00 326.00,347.00 326.00,347.00
             326.00,347.00 325.00,330.00 325.00,330.00
             325.00,330.00 325.00,288.00 325.00,288.00
             325.00,288.00 311.00,287.00 311.00,287.00
             311.00,287.00 281.00,286.00 281.00,286.00
             281.00,286.00 266.00,285.00 266.00,285.00
             266.00,285.00 244.00,284.00 244.00,284.00
             244.00,284.00 223.00,283.00 223.00,283.00
             223.00,283.00 194.00,282.00 194.00,282.00
             194.00,282.00 181.00,281.00 181.00,281.00
             181.00,281.00 171.39,279.98 171.39,279.98
             171.39,279.98 160.86,259.00 160.86,259.00
             160.86,259.00 131.00,192.00 131.00,192.00
             131.00,192.00 108.00,196.61 108.00,196.61
             108.00,196.61 63.00,205.00 63.00,205.00
             63.00,205.00 24.33,84.00 24.33,84.00
             24.33,84.00 0.00,8.00 0.00,8.00
             0.00,8.00 63.00,17.58 63.00,17.58 Z
           M 911.00,285.00
           C 911.00,285.00 894.00,286.00 894.00,286.00
             894.00,286.00 839.00,286.00 839.00,286.00
             839.00,286.00 823.00,287.00 823.00,287.00
             823.00,287.00 811.00,287.00 811.00,287.00
             811.00,287.00 801.83,374.00 801.83,374.00
             801.83,374.00 795.00,442.00 795.00,442.00
             795.00,442.00 847.00,442.00 847.00,442.00
             847.00,442.00 864.00,441.00 864.00,441.00
             864.00,441.00 920.00,441.00 920.00,441.00
             920.00,441.00 935.00,440.00 935.00,440.00
             935.00,440.00 954.00,440.00 954.00,440.00
             954.00,440.00 954.00,377.00 954.00,377.00
             954.00,377.00 953.00,360.00 953.00,360.00
             953.00,360.00 953.00,304.00 953.00,304.00
             953.00,304.00 952.00,290.00 952.00,290.00
             952.00,290.00 952.00,285.00 952.00,285.00
             952.00,285.00 911.00,285.00 911.00,285.00 Z
           M 554.00,290.00
           C 554.00,290.00 537.00,291.00 537.00,291.00
             537.00,291.00 481.00,291.00 481.00,291.00
             481.00,291.00 465.00,292.00 465.00,292.00
             465.00,292.00 466.83,310.00 466.83,310.00
             466.83,310.00 470.83,349.00 470.83,349.00
             470.83,349.00 481.00,446.96 481.00,446.96
             481.00,446.96 495.00,446.96 495.00,446.96
             495.00,446.96 507.00,446.00 507.00,446.00
             507.00,446.00 561.00,446.00 561.00,446.00
             561.00,446.00 578.00,445.00 578.00,445.00
             578.00,445.00 620.00,445.00 620.00,445.00
             620.00,445.00 619.09,435.00 619.09,435.00
             619.09,435.00 617.09,408.00 617.09,408.00
             617.09,408.00 611.91,333.00 611.91,333.00
             611.91,333.00 609.00,290.00 609.00,290.00
             609.00,290.00 554.00,290.00 554.00,290.00 Z" />
</svg>
